<svg xmlns="http://www.w3.org/2000/svg" viewBox="0 0 500 500"><g id="freepik--Shadow--inject-164"><ellipse id="freepik--path--inject-164" cx="250" cy="416.24" rx="193.89" ry="11.32" style="fill:#f5f5f5"></ellipse></g><g id="freepik--Popcorns--inject-164"><path d="M97.68,241.3c0-1.19-.79-3.43.92-4.35s2.24-1.06,2.64,0,.92.26,1.32-.14.79-.39.66-1.45-1.27-2,0-2.24,1.43-1.19,3.28-1.84,2.24-1.72,2.76-.66-.39,2.37.8,2a30.65,30.65,0,0,0,4.22-2.42s1-2.72,2.37-2.32,2-.74,2.9,0a8.87,8.87,0,0,1,1.8,2.81s-1.14,1,2.16,0,4.35-2,4.35-3.05-.93-3,1.18-3,3.57-1.05,4.36-.66,2.11,1.71,2.11,2.11,4.05,1.71,4.05,1.71a3.84,3.84,0,0,1,1.22-2.24c1.06-.92.13-1.58,2.9-2.24s4.09-2.37,4.75-1S151.88,224,152,225s1.23,1.31,1.21,1.45.37.13,1.43-.53a13,13,0,0,0,2.5-2.77s3.17.66,3.43,1.05,1.22,1.59,1.6,2.25.25,2,2.49,2,4,1.06,4.88-.39l.92-1.45s2.13-1.85,3-.79,1.71.39,2.1,1.32a2.93,2.93,0,0,1,0,2s2.64,1.72,3,1.45,1.3-.13,2.17-1.18-.46-2.64,1.52-1.32,2.64,1.05,2.9,1.71.92,1.57.53,2.17-.53,2,.92,2,1.85.32,3.43,0,3.07-.87,3.52,0,1.34,1.13,1.08,1.52,1.33.93,1.86.53.53-.79,1.45,0,2,1.39,2,2.08-.13,1.09.66,1.22,1.58,1.32,2,2.11.48.57.75,3.29-2.34,11.48-2.34,12.27-100.85,8.19-100.85,8.19Z" style="fill:#049DD9"></path><path d="M97.68,241.3c0-1.19-.79-3.43.92-4.35s2.24-1.06,2.64,0,.92.26,1.32-.14.79-.39.66-1.45-1.27-2,0-2.24,1.43-1.19,3.28-1.84,2.24-1.72,2.76-.66-.39,2.37.8,2a30.65,30.65,0,0,0,4.22-2.42s1-2.72,2.37-2.32,2-.74,2.9,0a8.87,8.87,0,0,1,1.8,2.81s-1.14,1,2.16,0,4.35-2,4.35-3.05-.93-3,1.18-3,3.57-1.05,4.36-.66,2.11,1.71,2.11,2.11,4.05,1.71,4.05,1.71a3.84,3.84,0,0,1,1.22-2.24c1.06-.92.13-1.58,2.9-2.24s4.09-2.37,4.75-1S151.88,224,152,225s1.23,1.31,1.21,1.45.37.13,1.43-.53a13,13,0,0,0,2.5-2.77s3.17.66,3.43,1.05,1.22,1.59,1.6,2.25.25,2,2.49,2,4,1.06,4.88-.39l.92-1.45s2.13-1.85,3-.79,1.71.39,2.1,1.32a2.93,2.93,0,0,1,0,2s2.64,1.72,3,1.45,1.3-.13,2.17-1.18-.46-2.64,1.52-1.32,2.64,1.05,2.9,1.71.92,1.57.53,2.17-.53,2,.92,2,1.85.32,3.43,0,3.07-.87,3.52,0,1.34,1.13,1.08,1.52,1.33.93,1.86.53.53-.79,1.45,0,2,1.39,2,2.08-.13,1.09.66,1.22,1.58,1.32,2,2.11.48.57.75,3.29-2.34,11.48-2.34,12.27-100.85,8.19-100.85,8.19Z" style="fill:#fff;opacity:0.7000000000000001;isolation:isolate"></path><path d="M201.92,247.76s-2.11-10.07-4.49-10.11a9.43,9.43,0,0,0-4.48,1.22,13.37,13.37,0,0,0-3.43-1.22c-1.05-.05-1-1.81-2.21,0s-2.39.84-2.27,2.51-3.7,1.76-2.9,0,2.11-2.44,1.58-3.81l-.53-1.38s-3.37-1.76-4.06-1.28-.33,1.06-.9,1.83,3.74,3,0,2.13-4.8,2.45-4.8-1.3v-3.76H170a2.17,2.17,0,0,1,0,1.88c-.48,1-.48-1.35-.48,1s4.48,2.9,0,2.37-9.5,1.17-8.18-1.52l1.32-2.7a2.54,2.54,0,0,0-1.53-.14c-1.11.14-1.62,1.24-2.29,2s1.46,1.38,0,2.13-3,1.36-3.57,0-.26,0-1.31-2.13.79-5-2.64-2.93-6.11,2.23-4.9,3.76,2.79,3.33,2.79,3.33.26.54-1.58,1.08,1.32,2.12-1.85.54-3.43-.85-3.43-2.67v-1.82h0c-1.58-.26-3.16.09-3.43.84s.25,5.34-1.59,4-1.57.48-1.84-1.37-1.31-3.77,0-4.65,2.91-.09,1.32-.89a17.7,17.7,0,0,0-3.16-1.19l-2.9,2v2.13s-1.35,1.89-2.26,0-.64-.31-.91-1.89l-.26-1.58s3.16-1.42,0-1.63l-3.17-.22s-2.11.46-2.11,1.42-1.84,2.92,0,2.6,1.85-1.65,1.85-.33-1.38,1.41-2.67,1.63-1.93,1.62-2.4,0-.47-.05-.47-1.63v-1.58h0l-2.11-1.05-2.37,1.45a1,1,0,0,0,0,1.51l.79.73s4.31,2.31-1.14,1.55-7.17.38-7.1-1l.06-1.36s0-.68-1.57.06a5.57,5.57,0,0,0-2.38,2.28l-4.81,2.13-1.26.33s.28,3.86,0,4.37A5.2,5.2,0,0,0,97.2,250c1.33,2.12,3.44,7.39,11.88,9.11s10.29,6.1,26.11,5.89,17.14.93,29.28-1.75,17.72-1.38,22.84-4.14,11.39-8.53,12.07-8.42S201.92,247.76,201.92,247.76Z" style="fill:#049DD9"></path><path d="M201.92,247.76s-2.11-10.07-4.49-10.11a9.43,9.43,0,0,0-4.48,1.22,13.37,13.37,0,0,0-3.43-1.22c-1.05-.05-1-1.81-2.21,0s-2.39.84-2.27,2.51-3.7,1.76-2.9,0,2.11-2.44,1.58-3.81l-.53-1.38s-3.37-1.76-4.06-1.28-.33,1.06-.9,1.83,3.74,3,0,2.13-4.8,2.45-4.8-1.3v-3.76H170a2.17,2.17,0,0,1,0,1.88c-.48,1-.48-1.35-.48,1s4.48,2.9,0,2.37-9.5,1.17-8.18-1.52l1.32-2.7a2.54,2.54,0,0,0-1.53-.14c-1.11.14-1.62,1.24-2.29,2s1.46,1.38,0,2.13-3,1.36-3.57,0-.26,0-1.31-2.13.79-5-2.64-2.93-6.11,2.23-4.9,3.76,2.79,3.33,2.79,3.33.26.54-1.58,1.08,1.32,2.12-1.85.54-3.43-.85-3.43-2.67v-1.82h0c-1.58-.26-3.16.09-3.43.84s.25,5.34-1.59,4-1.57.48-1.84-1.37-1.31-3.77,0-4.65,2.91-.09,1.32-.89a17.7,17.7,0,0,0-3.16-1.19l-2.9,2v2.13s-1.35,1.89-2.26,0-.64-.31-.91-1.89l-.26-1.58s3.16-1.42,0-1.63l-3.17-.22s-2.11.46-2.11,1.42-1.84,2.92,0,2.6,1.85-1.65,1.85-.33-1.38,1.41-2.67,1.63-1.93,1.62-2.4,0-.47-.05-.47-1.63v-1.58h0l-2.11-1.05-2.37,1.45a1,1,0,0,0,0,1.51l.79.73s4.31,2.31-1.14,1.55-7.17.38-7.1-1l.06-1.36s0-.68-1.57.06a5.57,5.57,0,0,0-2.38,2.28l-4.81,2.13-1.26.33s.28,3.86,0,4.37A5.2,5.2,0,0,0,97.2,250c1.33,2.12,3.44,7.39,11.88,9.11s10.29,6.1,26.11,5.89,17.14.93,29.28-1.75,17.72-1.38,22.84-4.14,11.39-8.53,12.07-8.42S201.92,247.76,201.92,247.76Z" style="fill:#fff;opacity:0.5;isolation:isolate"></path><path d="M97.68,249.74s2.11-10.07,4.48-10.11a9.44,9.44,0,0,1,4.49,1.22,13.37,13.37,0,0,1,3.43-1.22c1,0,1-1.81,2.21,0s2.39.84,2.27,2.51,3.69,1.76,2.9,0-2.11-2.44-1.58-3.82l.53-1.37s3.36-1.76,4-1.28.33,1.06.91,1.83-3.74,3,0,2.13,4.79,2.45,4.79-1.31v-3.75h3.48a2.17,2.17,0,0,0,0,1.88c.48,1,.48-1.35.48,1s-4.48,2.9,0,2.38,9.49,1.17,8.18-1.53L137,235.63a2.54,2.54,0,0,1,1.53-.14c1.1.14,1.62,1.24,2.29,2s-1.46,1.38,0,2.13,3,1.36,3.56,0,.27,0,1.32-2.13-.79-5,2.64-2.93,6.11,2.23,4.9,3.75-2.79,3.34-2.79,3.34-.27.54,1.58,1.08-1.32,2.12,1.85.54,3.42-.85,3.42-2.67v-1.82h0c1.59-.26,3.17.09,3.43.84s-.25,5.33,1.59,4,1.58.48,1.84-1.37,1.32-3.77,0-4.65-2.9-.1-1.32-.89a18,18,0,0,1,3.17-1.19l2.9,2v2.13s1.34,1.89,2.25,0,.65-.31.91-1.89l.27-1.59s-3.17-1.41,0-1.63l3.16-.21s2.11.46,2.11,1.41,1.85,2.93,0,2.6-1.84-1.64-1.84-.32,1.37,1.41,2.66,1.63,1.94,1.62,2.41,0,.46,0,.46-1.63v-1.58h0l2.11-1.06,2.38,1.45a1,1,0,0,1,0,1.51l-.79.74s-4.31,2.31,1.14,1.55,7.17.38,7.1-1l-.07-1.37s0-.67,1.57.06a5.61,5.61,0,0,1,2.39,2.29l4.81,2.13,1.25.32s-.27,3.87,0,4.37a5.17,5.17,0,0,1-.77,4.54c-1.34,2.12-3.45,7.39-11.88,9.11s-10.29,6.1-26.11,5.89-17.15.93-29.28-1.76-17.72-1.37-22.84-4.13-11.39-8.54-12.08-8.42S97.68,249.74,97.68,249.74Z" style="fill:#049DD9"></path><path d="M97.68,249.74s2.11-10.07,4.48-10.11a9.44,9.44,0,0,1,4.49,1.22,13.37,13.37,0,0,1,3.43-1.22c1,0,1-1.81,2.21,0s2.39.84,2.27,2.51,3.69,1.76,2.9,0-2.11-2.44-1.58-3.82l.53-1.37s3.36-1.76,4-1.28.33,1.06.91,1.83-3.74,3,0,2.13,4.79,2.45,4.79-1.31v-3.75h3.48a2.17,2.17,0,0,0,0,1.88c.48,1,.48-1.35.48,1s-4.48,2.9,0,2.38,9.49,1.17,8.18-1.53L137,235.63a2.54,2.54,0,0,1,1.53-.14c1.1.14,1.62,1.24,2.29,2s-1.46,1.38,0,2.13,3,1.36,3.56,0,.27,0,1.32-2.13-.79-5,2.64-2.93,6.11,2.23,4.9,3.75-2.79,3.34-2.79,3.34-.27.54,1.58,1.08-1.32,2.12,1.85.54,3.42-.85,3.42-2.67v-1.82h0c1.59-.26,3.17.09,3.43.84s-.25,5.33,1.59,4,1.58.48,1.84-1.37,1.32-3.77,0-4.65-2.9-.1-1.32-.89a18,18,0,0,1,3.17-1.19l2.9,2v2.13s1.34,1.89,2.25,0,.65-.31.91-1.89l.27-1.59s-3.17-1.41,0-1.63l3.16-.21s2.11.46,2.11,1.41,1.85,2.93,0,2.6-1.84-1.64-1.84-.32,1.37,1.41,2.66,1.63,1.94,1.62,2.41,0,.46,0,.46-1.63v-1.58h0l2.11-1.06,2.38,1.45a1,1,0,0,1,0,1.51l-.79.74s-4.31,2.31,1.14,1.55,7.17.38,7.1-1l-.07-1.37s0-.67,1.57.06a5.61,5.61,0,0,1,2.39,2.29l4.81,2.13,1.25.32s-.27,3.87,0,4.37a5.17,5.17,0,0,1-.77,4.54c-1.34,2.12-3.45,7.39-11.88,9.11s-10.29,6.1-26.11,5.89-17.15.93-29.28-1.76-17.72-1.37-22.84-4.13-11.39-8.54-12.08-8.42S97.68,249.74,97.68,249.74Z" style="fill:#fff;opacity:0.7000000000000001;isolation:isolate"></path><path d="M104,250.87s-1.85-4.3-.79-5.35,2.24-.66,2.5,0-1.12,1.63,0,1.84,2.18,1.13,2.38-.26.39-2.24,0-2.64-.34,0,.23-.87.34-1.77,1.48-.71,2.72,1.71,2.48,2.37-2,.66,0,1.39,3,.79,4.25,0,1.5-.63,2,0,2,1.43,1.94,2.16-.21,6.19.91,3.17,2.71-3.13,1.84-4.33.58-.54-.87-1.2-2.17-.53-1.88-1.85-.33-1.86.91-2.18,1.1-1.77,2.09-.85,1,.4,1.52,1.32a5.58,5.58,0,0,0,.52.92c.55.82,1.74,0,2.8-.11s-.09,1,1.06-.1,1.95-1.37,2.34-.84,2.21.76,2,1.58-1.21.87,0,1.58,2.62,1.78,3.41,1.16,1.32,3.72.79-.63,2.36-4.09,2.9-3.82,1.3-.73,1.06,1,1.12,1.95,1.68.49.16-2,.56-2.12,1.18-1.14,1.58-.7,2.26-.44,2.11,1.09-1.16,1.1-.15,1.54a21.22,21.22,0,0,1,2.9,1.84s-.41.31,0-1-1.21-1.44.41-1.32,1.77.52,2.27,1.05-1.16,1.58,0,1.85,3.69,1.5,3.61.22,0-2.94,0-2.94-1.53-1.93-1-2.44.53-1.3,1.45-1.17,1.32-1.48,1.85,0-1.85,3.63.66,3.63,2.39-3,2.39-3a1.48,1.48,0,0,1,1.43-.66c1,.09,1.72.39,2,1.19s.4,1.31,0,1.84,2.9,2.11,2.9,2.11,1.59,1.19,1.32-.66-1.52-2.37,0-2.37,2.74.26,3,.92-.13,2.11-.52,2.24-2.07,1.66.61,1.82,6.35,2.07,5.51.06a6.16,6.16,0,0,1-.45-3.54s-1.45-.05-1.72-1.11-1.34-.57.4-1.71,1.29-3.75,2.72-2.45,1.36.08,1.43,2.05,1.92,3.3,2.18,2.11,0,0,.26-1.18-.79-2,0-1.85,2.39-.82,2.9.13.4,1.19,0,1.85-.37,2.08.35,2.16,3.08,1.11,3.08,0,.4-1.63,0-1.9a2.91,2.91,0,0,1-.67-1.34s.67-.9,1.46-.9,3.14-.44,2.84.18,2.21,1.6.42,2.85-.16.17-1.32,1.61-2.2,2.48-.88,2.75,2.22.87,3.28.92,2.9,0,1.52-1.13-2.19-.45-1.52-2.17,1.25-2.24,2-2.24,1.56-.26,1.82.13,2.79.64,1.53,1.77-.37,3.38.35,2.58,1.48.28,1.48-1.84v-3.43s-.47-1.06,0-1.06,3.23-.79,3.5.14,1,2.46.52,3.08a7.06,7.06,0,0,1-.49.63c-.45.53.56,2.09.66,2.88s1.74.87,0,3.33.29,2.21-2.71,5.11-5.76,5.27-12.88,8.44-76.62,9-83.74,9.49-13.06-3.82-13.06-7.12,4.75-15.75,4-15.92-3.16-3.07-3.3-3.59a22.66,22.66,0,0,1-.13-3.25,4.29,4.29,0,0,1,3.43-3.48c2-.26,2.3-.25,2.53,1.59s-1.61,2-1.74,2.63a2.58,2.58,0,0,0,.4,2.64,19.43,19.43,0,0,0,1.34,2.1S104.36,251.78,104,250.87Z" style="fill:#049DD9"></path><path d="M104,250.87s-1.85-4.3-.79-5.35,2.24-.66,2.5,0-1.12,1.63,0,1.84,2.18,1.13,2.38-.26.39-2.24,0-2.64-.34,0,.23-.87.34-1.77,1.48-.71,2.72,1.71,2.48,2.37-2,.66,0,1.39,3,.79,4.25,0,1.5-.63,2,0,2,1.43,1.94,2.16-.21,6.19.91,3.17,2.71-3.13,1.84-4.33.58-.54-.87-1.2-2.17-.53-1.88-1.85-.33-1.86.91-2.18,1.1-1.77,2.09-.85,1,.4,1.52,1.32a5.58,5.58,0,0,0,.52.92c.55.82,1.74,0,2.8-.11s-.09,1,1.06-.1,1.95-1.37,2.34-.84,2.21.76,2,1.58-1.21.87,0,1.58,2.62,1.78,3.41,1.16,1.32,3.72.79-.63,2.36-4.09,2.9-3.82,1.3-.73,1.06,1,1.12,1.95,1.68.49.16-2,.56-2.12,1.18-1.14,1.58-.7,2.26-.44,2.11,1.09-1.16,1.1-.15,1.54a21.22,21.22,0,0,1,2.9,1.84s-.41.31,0-1-1.21-1.44.41-1.32,1.77.52,2.27,1.05-1.16,1.58,0,1.85,3.69,1.5,3.61.22,0-2.94,0-2.94-1.53-1.93-1-2.44.53-1.3,1.45-1.17,1.32-1.48,1.85,0-1.85,3.63.66,3.63,2.39-3,2.39-3a1.48,1.48,0,0,1,1.43-.66c1,.09,1.72.39,2,1.19s.4,1.31,0,1.84,2.9,2.11,2.9,2.11,1.59,1.19,1.32-.66-1.52-2.37,0-2.37,2.74.26,3,.92-.13,2.11-.52,2.24-2.07,1.66.61,1.82,6.35,2.07,5.51.06a6.16,6.16,0,0,1-.45-3.54s-1.45-.05-1.72-1.11-1.34-.57.4-1.71,1.29-3.75,2.72-2.45,1.36.08,1.43,2.05,1.92,3.3,2.18,2.11,0,0,.26-1.18-.79-2,0-1.85,2.39-.82,2.9.13.4,1.19,0,1.85-.37,2.08.35,2.16,3.08,1.11,3.08,0,.4-1.63,0-1.9a2.91,2.91,0,0,1-.67-1.34s.67-.9,1.46-.9,3.14-.44,2.84.18,2.21,1.6.42,2.85-.16.17-1.32,1.61-2.2,2.48-.88,2.75,2.22.87,3.28.92,2.9,0,1.52-1.13-2.19-.45-1.52-2.17,1.25-2.24,2-2.24,1.56-.26,1.82.13,2.79.64,1.53,1.77-.37,3.38.35,2.58,1.48.28,1.48-1.84v-3.43s-.47-1.06,0-1.06,3.23-.79,3.5.14,1,2.46.52,3.08a7.06,7.06,0,0,1-.49.63c-.45.53.56,2.09.66,2.88s1.74.87,0,3.33.29,2.21-2.71,5.11-5.76,5.27-12.88,8.44-76.62,9-83.74,9.49-13.06-3.82-13.06-7.12,4.75-15.75,4-15.92-3.16-3.07-3.3-3.59a22.66,22.66,0,0,1-.13-3.25,4.29,4.29,0,0,1,3.43-3.48c2-.26,2.3-.25,2.53,1.59s-1.61,2-1.74,2.63a2.58,2.58,0,0,0,.4,2.64,19.43,19.43,0,0,0,1.34,2.1S104.36,251.78,104,250.87Z" style="fill:#fff;opacity:0.5;isolation:isolate"></path><path d="M171.14,258.37l-3.5,155.21H97.88l-9.7-155.21c-.5-8.11,3.19-14.78,8.25-14.78,3.62,0,6.9,3.44,8.6,8.38,1.27-4.94,4.24-8.38,7.86-8.38s6.85,3.44,8.48,8.38c1.34-4.94,4.37-8.38,8-8.38s6.8,3.44,8.34,8.38c1.42-4.94,4.51-8.38,8.14-8.38S152.57,247,154,252c1.52-4.94,4.66-8.38,8.28-8.38C167.36,243.59,171.32,250.26,171.14,258.37Z" style="fill:#049DD9"></path><path d="M171.14,258.37l-3.5,155.21H97.88l-9.7-155.21c-.5-8.11,3.19-14.78,8.25-14.78,3.62,0,6.9,3.44,8.6,8.38,1.27-4.94,4.24-8.38,7.86-8.38s6.85,3.44,8.48,8.38c1.34-4.94,4.37-8.38,8-8.38s6.8,3.44,8.34,8.38c1.42-4.94,4.51-8.38,8.14-8.38S152.57,247,154,252c1.52-4.94,4.66-8.38,8.28-8.38C167.36,243.59,171.32,250.26,171.14,258.37Z" style="fill:#fff;opacity:0.6000000000000001"></path><path d="M105,252l7.26,161.61H97.88l-9.7-155.21c-.5-8.11,3.19-14.78,8.25-14.78C100.05,243.59,103.33,247,105,252Z" style="fill:#049DD9"></path><path d="M137.7,252l1.88,161.61H125.94L121.37,252c1.34-4.94,4.37-8.38,8-8.38S136.16,247,137.7,252Z" style="fill:#049DD9"></path><path d="M171.14,258.37l-3.5,155.21H153.22L154,252c1.52-4.94,4.66-8.38,8.28-8.38C167.36,243.59,171.32,250.26,171.14,258.37Z" style="fill:#049DD9"></path><path d="M171.14,258.37l-3.5,155.21H200.4l9.7-155.21c.51-8.11-1-14.78-3.38-14.78-1.7,0-3.36,3.44-4.32,8.38-.43-4.94-1.72-8.38-3.42-8.38s-3.33,3.44-4.26,8.38c-.46-4.94-1.77-8.38-3.47-8.38s-3.31,3.44-4.19,8.38c-.51-4.94-1.85-8.38-3.55-8.38s-3.28,3.44-4.12,8.38c-.55-4.94-1.91-8.38-3.61-8.38C173.4,243.59,171.32,250.26,171.14,258.37Z" style="fill:#049DD9"></path><path d="M171.14,258.37l-3.5,155.21H200.4l9.7-155.21c.51-8.11-1-14.78-3.38-14.78-1.7,0-3.36,3.44-4.32,8.38-.43-4.94-1.72-8.38-3.42-8.38s-3.33,3.44-4.26,8.38c-.46-4.94-1.77-8.38-3.47-8.38s-3.31,3.44-4.19,8.38c-.51-4.94-1.85-8.38-3.55-8.38s-3.28,3.44-4.12,8.38c-.55-4.94-1.91-8.38-3.61-8.38C173.4,243.59,171.32,250.26,171.14,258.37Z" style="fill:#fff;opacity:0.6000000000000001"></path><path d="M202.4,252l-8.76,161.61h6.76l9.7-155.21c.51-8.11-1-14.78-3.38-14.78C205,243.59,203.36,247,202.4,252Z" style="fill:#049DD9"></path><path d="M187.06,252l-6.24,161.61h6.4L194.72,252c-.46-4.94-1.77-8.38-3.47-8.38S187.94,247,187.06,252Z" style="fill:#049DD9"></path><path d="M171.14,258.37l-3.5,155.21h6.77l5-161.61c-.55-4.94-1.91-8.38-3.61-8.38C173.4,243.59,171.32,250.26,171.14,258.37Z" style="fill:#049DD9"></path><path d="M171.14,258.37l-3.5,155.21H200.4l9.7-155.21c.51-8.11-1-14.78-3.38-14.78-1.7,0-3.36,3.44-4.32,8.38-.43-4.94-1.72-8.38-3.42-8.38s-3.33,3.44-4.26,8.38c-.46-4.94-1.77-8.38-3.47-8.38s-3.31,3.44-4.19,8.38c-.51-4.94-1.85-8.38-3.55-8.38s-3.28,3.44-4.12,8.38c-.55-4.94-1.91-8.38-3.61-8.38C173.4,243.59,171.32,250.26,171.14,258.37Z" style="opacity:0.2;isolation:isolate"></path><path d="M137.21,226.13c2.21-1.24,4.88-1.18,4.09,0s0,1.45,1.19,2.11,4.09-.66,1.32,1.45-2.91,2.38-3.3,2.64-.9-1.05-1,0-2.05.73-2.32,0,.53-1.23,0-1.62-.05-2.9-.05-2.9S135.91,226.87,137.21,226.13Z" style="fill:#049DD9"></path><path d="M137.21,226.13c2.21-1.24,4.88-1.18,4.09,0s0,1.45,1.19,2.11,4.09-.66,1.32,1.45-2.91,2.38-3.3,2.64-.9-1.05-1,0-2.05.73-2.32,0,.53-1.23,0-1.62-.05-2.9-.05-2.9S135.91,226.87,137.21,226.13Z" style="fill:#fff;opacity:0.8;isolation:isolate"></path><path d="M140.8,226.79c-.79-.66-1.52-.46-1.52,0s-.33.2,0,.83.53.23.33.62-1.08.56-.47.87,1.2-.64,1.2,0-.08,1.18.46.91.4.79.53-.26.13-.92.53-1S140.8,226.79,140.8,226.79Z" style="opacity:0.1;isolation:isolate"></path><path d="M107.89,231.33c2.21-1.24,4.87-1.19,4.08,0s0,1.45,1.19,2.11,4.09-.66,1.32,1.45-2.91,2.38-3.3,2.64-.9-1.06-1,0-2.06.73-2.32,0,.53-1.22,0-1.61-.06-2.9-.06-2.9S106.59,232.06,107.89,231.33Z" style="fill:#049DD9"></path><path d="M107.89,231.33c2.21-1.24,4.87-1.19,4.08,0s0,1.45,1.19,2.11,4.09-.66,1.32,1.45-2.91,2.38-3.3,2.64-.9-1.06-1,0-2.06.73-2.32,0,.53-1.22,0-1.61-.06-2.9-.06-2.9S106.59,232.06,107.89,231.33Z" style="fill:#fff;opacity:0.8;isolation:isolate"></path><path d="M111.47,232c-.79-.66-1.51-.46-1.51,0s-.33.2,0,.83.53.23.33.62-1.09.56-.48.87,1.2-.64,1.2,0-.07,1.18.46.91.4.79.53-.26.13-.93.53-1S111.47,232,111.47,232Z" style="opacity:0.1;isolation:isolate"></path><path d="M149.75,236.49c1,2.34.61,5-.48,4.06s-1.44-.17-2.23.93.17,4.14-1.6,1.14-2-3.17-2.23-3.59,1.15-.77.11-1-.48-2.13.24-2.31,1.15.67,1.61.19,2.88.29,2.88.29S149.17,235.11,149.75,236.49Z" style="fill:#049DD9"></path><path d="M149.75,236.49c1,2.34.61,5-.48,4.06s-1.44-.17-2.23.93.17,4.14-1.6,1.14-2-3.17-2.23-3.59,1.15-.77.11-1-.48-2.13.24-2.31,1.15.67,1.61.19,2.88.29,2.88.29S149.17,235.11,149.75,236.49Z" style="fill:#fff;opacity:0.8;isolation:isolate"></path><path d="M148.67,240c.75-.7.64-1.45.18-1.5s-.16-.35-.82-.1-.29.5-.66.26-.42-1.14-.81-.58.5,1.27-.14,1.2-1.15-.22-.95.34-.84.31.2.56.9.24.92.64S148.67,240,148.67,240Z" style="opacity:0.1;isolation:isolate"></path><path d="M170.15,232.57c-1.83,1.75-4.43,2.36-4,1s-.36-1.4-1.67-1.75-3.8,1.65-1.64-1.08,2.24-3,2.55-3.37,1.13.8.95-.24,1.8-1.22,2.23-.61-.21,1.32.4,1.57.77,2.8.77,2.8S171.23,231.54,170.15,232.57Z" style="fill:#049DD9"></path><path d="M170.15,232.57c-1.83,1.75-4.43,2.36-4,1s-.36-1.4-1.67-1.75-3.8,1.65-1.64-1.08,2.24-3,2.55-3.37,1.13.8.95-.24,1.8-1.22,2.23-.61-.21,1.32.4,1.57.77,2.8.77,2.8S171.23,231.54,170.15,232.57Z" style="fill:#fff;opacity:0.8;isolation:isolate"></path><path d="M166.52,232.82c.92.44,1.58.07,1.46-.38s.27-.27-.2-.8-.57-.09-.47-.52.91-.81.24-1-1,.92-1.16.29-.22-1.15-.67-.76-.58-.67-.45.38.1.93-.27,1.09S166.52,232.82,166.52,232.82Z" style="opacity:0.1;isolation:isolate"></path><path d="M152.93,224c2.17-1.3,2.95-.88,2.9,0s1.19.81,1.65,1.26,1.26.79,1.45,1.15.93,0,.33.88-1,1-1.32,1.59-.33.59-.92.85.3,1.78-.81,1.32-1.3.59-2.16-.2-.79-1.22-1.64-1.7-1.26.24-1.26-.81-.59-1.18,0-1.64a2.05,2.05,0,0,0,.73-1.12A3.4,3.4,0,0,1,152.93,224Z" style="fill:#049DD9"></path><path d="M152.93,224c2.17-1.3,2.95-.88,2.9,0s1.19.81,1.65,1.26,1.26.79,1.45,1.15.93,0,.33.88-1,1-1.32,1.59-.33.59-.92.85.3,1.78-.81,1.32-1.3.59-2.16-.2-.79-1.22-1.64-1.7-1.26.24-1.26-.81-.59-1.18,0-1.64a2.05,2.05,0,0,0,.73-1.12A3.4,3.4,0,0,1,152.93,224Z" style="fill:#fff;opacity:0.8;isolation:isolate"></path><path d="M153,227.13c-.27-1.15-.2-1.66.59-1.2s.73,1.1,1.12.52a3.09,3.09,0,0,0,.48-1.23,1.6,1.6,0,0,1,.78,0c.26.12.85.55.39.93s-1-.15-.46.38.86,0,1,.6.79,1.3,0,1.17-.33.27-.79-.12-1.16-.6-.91-.14.46.93-.14.73-1,0-1-.47.66-.39.14-.72S153.12,227.64,153,227.13Z" style="opacity:0.1;isolation:isolate"></path><path d="M68.77,416.17h145s-5.37-3.43-6.69-3.64-1.24,1-2.93,0-.85.83-1.68-1-.83-1-.83-1.86-1.08-.62-.74-1.85,1.16-2.69-1.32-2.89-2.68.62-3.3,0-.15-.12-1.73,1,.14,3.05-2.57,2.9a16,16,0,0,0-4.36.25c-1.45-1.85,0-2.82-2.07-3a35.26,35.26,0,0,0-4.28-.19c-1.7,1.71-1.29,2.44-2.32,2.9s-2.23,1.15-1.94,2.25,3.53,1.81.29,1.1.14,1.62-3.24-.72-2-2.37-3.61-1.55-.78-.41-1.61.82a9.51,9.51,0,0,1-3,2.34,2.43,2.43,0,0,1-1.86.17c-1.35-.24-3.62-.76-3.62-.76s.41,2.65-.82-1.4.2-3.23-1.24-4.06-2.32-2-4.36-2.33-.15-.56-2-.35-3.2.7-3.76,1.59a7.43,7.43,0,0,1-1.54,1.92,49.4,49.4,0,0,1-5.35,3.15s-1.17.77-3.93-1.09-2.13-2.48-4-2.27-3.09,2.06-3.71,2.27a32.51,32.51,0,0,1-3.71.41s3.66.28-1.57.76l-5.24.48s-1.26,1.47-1.31.28-2.61-2.86-3.64-3-2.48-1.4-3.3-1.4a3.27,3.27,0,0,0-2.36,1.4c-.74.87,1.94-1.19-.74.87s-2.68,3-2.89,4.16-3.78,0-6-1.38-.64-3.29-3.94-3.65-4,.87-4,1.08,1.36-.22-1.63.51-5.26,1.26-5.67.58.83-.83-1.65-.76a21.94,21.94,0,0,0-6.19,1.71l-.2,2.07S69.8,414.66,68.77,416.17Z" style="fill:#049DD9"></path><path d="M213.76,416.17h-145c.5-.73,2.11-1.27,3.63-1.63s3.17-.58,3.17-.58l.21-2.07a21.59,21.59,0,0,1,6.19-1.7c2.48-.08,1.24.07,1.65.76s2.69.14,5.67-.59,1.55-.31,1.62-.51.76-1.45,4.06-1.09,1.76,2.33,3.94,3.66,5.76,2.59,6,1.38.21-2.09,2.89-4.16,0,0,.74-.88a3.32,3.32,0,0,1,2.36-1.39c.82,0,2.26,1.24,3.3,1.39s3.59,1.83,3.64,3,1.31-.28,1.31-.28l5.23-.48c5.24-.49,1.57-.76,1.57-.76a35.12,35.12,0,0,0,3.72-.41c.62-.2,1.85-2.06,3.72-2.27s1.23.41,4,2.27a10.37,10.37,0,0,0,1.21.71c1.89.92,2.71.39,2.71.39s.86-.45,1.89-1l0,0,.15-.09h0a25.85,25.85,0,0,0,3.23-2,7.43,7.43,0,0,0,1.54-1.92c.56-.88,1.87-1.38,3.76-1.59s0,0,2,.35,2.91,1.51,4.36,2.33,0,0,1.24,4.06c.09.31.17.59.25.83.92,2.83.57.57.57.57s2.27.52,3.62.76,1.85-.17,1.85-.17a9.63,9.63,0,0,0,3-2.34c.82-1.23,0,0,1.61-.82s.24-.78,3.61,1.55,0,0,3.24.72l.06,0,1,.21h0a.86.86,0,0,0,.18,0c.25,0,.19,0,0-.11-.41-.2-1.39-.68-1.54-1.26a1.26,1.26,0,0,1,.05-.82,3.78,3.78,0,0,1,1.89-1.44,1.49,1.49,0,0,0,.58-.43,10.55,10.55,0,0,1,1.74-2.46,36.41,36.41,0,0,1,4.28.2c2.07.13.62,1.1,2.07,2.95a15.13,15.13,0,0,1,3.56-.29h.05l.75,0c2.72.16,1-1.8,2.57-2.89s1.12-1.59,1.73-1,.82-.21,3.3,0,1.66,1.65,1.32,2.89.74,1,.74,1.85,0,0,.83,1.86,0,0,1.68,1a2.45,2.45,0,0,0,.93.4c.79.14,1-.56,2-.4C208.39,412.74,213.76,416.17,213.76,416.17Z" style="fill:#fff;opacity:0.7000000000000001;isolation:isolate"></path><path d="M86.13,413.7c0,1.28-.58,2.19-.21,2.47H68.77c.5-.73,2.11-1.27,3.63-1.63.7.26.91,1.2,2.35,1a5.16,5.16,0,0,0,2.68-1.52l1.07-.85,1.61.58L82.38,415s-.2-2.15,1-1.79S86.13,412.42,86.13,413.7Z" style="opacity:0.1;isolation:isolate"></path><path d="M96.37,415.2l.52,1H94.8l-1.68-1.8-.9-.9.43-1.05a2.29,2.29,0,0,1,1.8-.53c1.26.07,2.32,1.69,2.32,1.69Z" style="opacity:0.1;isolation:isolate"></path><path d="M143.29,409.85l-.1,0,.15-.09S143.3,409.84,143.29,409.85Z" style="opacity:0.1;isolation:isolate"></path><path d="M159.55,411c.09.31.17.59.25.83C159.76,411.89,159.75,411.83,159.55,411Z" style="opacity:0.1;isolation:isolate"></path><path d="M213.76,416.17H103.43a8.76,8.76,0,0,0,3.09-2.21c.83-1.22,2.07-2.72,3.3-2.18s1,.06,1.86,1.23l.83,1.18s-.62.58,2.88-.12a47.87,47.87,0,0,1,5.57-.85l1.86.85s1.19,1.95,1.52,0a7.12,7.12,0,0,0,0-3.05l2.61.76s2.59-.28,1.6.75l-1,1,2.68,2,1.27-.58a2.88,2.88,0,0,1,0-1.83c.38-.65,2.23-.63,2.23-.63v1.52s.83,1.16,1.45.94,2.27,1,2.68,0,1.55-.9,1.4-2-.29,0-.16-1.1a2.73,2.73,0,0,0-.57-1.35c1.89.92,2.71.39,2.71.39a7.29,7.29,0,0,1,0,2.85s1.6,1.43,2.41,1.21.82,1,.82-.21-2.34-2.52,0-2.25a10.24,10.24,0,0,1,4.6,2.22l.77-1.59.11-2.78.51-1s1-2.27,1.12-.65.63.14.16,1.64l-.46,1.49s2.11.79,1.85.1a3.25,3.25,0,0,1,.18-1.8s-1.87-3.33,0-1.43,2.09.47,1.88,1.91-.82-.2-.2,1.45-1.24.82.62,1.65,2.48,2.28,2.68,1.24,2.89-1.18,2.06-2.59c0,0,2.27.52,3.62.76l.95.62,5.82,1.21s-1.07-.87,0-1.37,0,1.59,1.12,1.35,3.31.65,3.93,0,3.08.83,2.88-.94c-.11-1.08-.16-1.51-.18-1.68v-.11a.63.63,0,0,1-.17.07h0a.88.88,0,0,1-1-.21A1.91,1.91,0,0,1,177,411a3.18,3.18,0,0,1,.05-.82,3.78,3.78,0,0,1,1.89-1.44,1.49,1.49,0,0,0,.58-.43,1.73,1.73,0,0,1,.45.9c0,.62,1.29,1.79,1.29,1.79s-.25-2.1.67-2.26,3.41.06,3,1.09,2.16,2.46.05,2.57l-2.11.11s-1.44,1.41.41,1.43,1.57-1.1,2.54-.74.83,1.51,1.21-.21a6.55,6.55,0,0,0,.16-2.65s.1-.88.89-.17,1.58.44,1.18,1.7-2.88.23-.41,1.26,2.75.79,3.13.81S193.5,411,193.5,411s-1.71.05-1.53-.66-1.71-1.51-.8-1.63h.05a5.55,5.55,0,0,1,.75,0c2.44.26,1.88.52,2.57,1.43a5.1,5.1,0,0,1,.9,1.7s1.61.7,2.34,1l.35.05c3.92.62,4.42,2.07,4.42,2.07s2.26.28,2.73-.94a1.34,1.34,0,0,0-.21-1.14c-.31-.55-.46-.79,2-.4C208.39,412.74,213.76,416.17,213.76,416.17Z" style="opacity:0.1;isolation:isolate"></path><path d="M85.16,408.74c2.4.79,4.16,2.8,2.75,3s-1.07,1-.76,2.31S90.4,416.63,87,416s-3.72-.55-4.17-.67.17-1.37-.66-.72-1.92-1-1.59-1.68,1.26-.44,1.2-1.09,2.1-2,2.1-2S83.74,408.27,85.16,408.74Z" style="fill:#049DD9"></path><path d="M85.16,408.74c2.4.79,4.16,2.8,2.75,3s-1.07,1-.76,2.31S90.4,416.63,87,416s-3.72-.55-4.17-.67.17-1.37-.66-.72-1.92-1-1.59-1.68,1.26-.44,1.2-1.09,2.1-2,2.1-2S83.74,408.27,85.16,408.74Z" style="fill:#fff;opacity:0.8;isolation:isolate"></path><path d="M87.08,411.83c0-1-.67-1.43-1-1.12s-.37-.11-.61.56.18.54-.24.66-1.15-.42-1,.24,1.29.45.81.89-.92.73-.36.94-.32.83.55.22.77-.52,1.09-.28S87.08,411.83,87.08,411.83Z" style="opacity:0.1;isolation:isolate"></path><path d="M184.92,414.6c-1.92,1.66-4.54,2.13-4,.81s-.3-1.42-1.59-1.83-3.87,1.46-1.58-1.16,2.38-2.9,2.71-3.24,1.09.85,1-.19,1.86-1.13,2.26-.5-.27,1.3.32,1.59.63,2.83.63,2.83S186.05,413.62,184.92,414.6Z" style="fill:#049DD9"></path><path d="M184.92,414.6c-1.92,1.66-4.54,2.13-4,.81s-.3-1.42-1.59-1.83-3.87,1.46-1.58-1.16,2.38-2.9,2.71-3.24,1.09.85,1-.19,1.86-1.13,2.26-.5-.27,1.3.32,1.59.63,2.83.63,2.83S186.05,413.62,184.92,414.6Z" style="fill:#fff;opacity:0.8;isolation:isolate"></path><path d="M181.28,414.66c.9.49,1.57.16,1.48-.3s.28-.26-.16-.8-.57-.12-.45-.55.95-.76.29-.95-1.05.87-1.18.24-.15-1.17-.62-.8-.55-.7-.47.36.05.93-.32,1.08S181.28,414.66,181.28,414.66Z" style="opacity:0.1;isolation:isolate"></path><path d="M73.39,409c2.17-1.29,3-.88,2.91,0s1.18.82,1.64,1.27,1.26.79,1.45,1.14.93,0,.33.89-1,1-1.32,1.58-.32.59-.92.86.3,1.78-.81,1.32-1.3.59-2.16-.2-.79-1.22-1.64-1.7-1.26.24-1.26-.81-.59-1.18,0-1.65a2.05,2.05,0,0,0,.73-1.12A3.4,3.4,0,0,1,73.39,409Z" style="fill:#049DD9"></path><path d="M73.39,409c2.17-1.29,3-.88,2.91,0s1.18.82,1.64,1.27,1.26.79,1.45,1.14.93,0,.33.89-1,1-1.32,1.58-.32.59-.92.86.3,1.78-.81,1.32-1.3.59-2.16-.2-.79-1.22-1.64-1.7-1.26.24-1.26-.81-.59-1.18,0-1.65a2.05,2.05,0,0,0,.73-1.12A3.4,3.4,0,0,1,73.39,409Z" style="fill:#fff;opacity:0.8;isolation:isolate"></path><path d="M73.46,412.18c-.27-1.14-.2-1.65.59-1.19s.73,1.09,1.12.51a3.07,3.07,0,0,0,.48-1.22,1.6,1.6,0,0,1,.78,0c.26.12.85.54.39.92s-1-.14-.46.38.86,0,1,.6.79,1.3,0,1.18-.33.27-.79-.13-1.16-.59-.91-.13.46.92-.14.72-1,0-1-.46.66-.39.14-.72S73.58,412.69,73.46,412.18Z" style="opacity:0.1;isolation:isolate"></path><path d="M151,409c2.17-1.29,2.95-.88,2.9,0s1.19.82,1.65,1.27,1.26.79,1.45,1.14.93,0,.33.89-1,1-1.32,1.58-.33.59-.92.86.3,1.78-.81,1.32-1.3.59-2.16-.2-.79-1.22-1.64-1.7-1.26.24-1.26-.81-.59-1.18,0-1.65a2.05,2.05,0,0,0,.73-1.12A3.4,3.4,0,0,1,151,409Z" style="fill:#049DD9"></path><path d="M151,409c2.17-1.29,2.95-.88,2.9,0s1.19.82,1.65,1.27,1.26.79,1.45,1.14.93,0,.33.89-1,1-1.32,1.58-.33.59-.92.86.3,1.78-.81,1.32-1.3.59-2.16-.2-.79-1.22-1.64-1.7-1.26.24-1.26-.81-.59-1.18,0-1.65a2.05,2.05,0,0,0,.73-1.12A3.4,3.4,0,0,1,151,409Z" style="fill:#fff;opacity:0.8;isolation:isolate"></path><path d="M151,412.18c-.27-1.14-.2-1.65.59-1.19s.73,1.09,1.12.51a3.07,3.07,0,0,0,.48-1.22,1.6,1.6,0,0,1,.78,0c.26.12.85.54.39.92s-1-.14-.46.38.86,0,1,.6.79,1.3,0,1.18-.33.27-.79-.13-1.16-.59-.91-.13.46.92-.14.72-1,0-1-.46.66-.39.14-.72S151.15,412.69,151,412.18Z" style="opacity:0.1;isolation:isolate"></path><path d="M190.91,236.52c-1.64,1.91-2.52,1.77-2.75.92s-1.38-.4-2-.68-1.44-.35-1.74-.63-.88.27-.59-.73.62-1.25.75-1.92a1.33,1.33,0,0,1,.6-1.11c.48-.43-.84-1.59.35-1.5s1.05-1,2.11-.5,1.14.91,2.1,1.09,1.12-.62,1.45.38.94.93.52,1.56a2,2,0,0,0-.33,1.29A3.39,3.39,0,0,1,190.91,236.52Z" style="fill:#049DD9"></path><path d="M190.91,236.52c-1.64,1.91-2.52,1.77-2.75.92s-1.38-.4-2-.68-1.44-.35-1.74-.63-.88.27-.59-.73.62-1.25.75-1.92a1.33,1.33,0,0,1,.6-1.11c.48-.43-.84-1.59.35-1.5s1.05-1,2.11-.5,1.14.91,2.1,1.09,1.12-.62,1.45.38.94.93.52,1.56a2,2,0,0,0-.33,1.29A3.39,3.39,0,0,1,190.91,236.52Z" style="fill:#fff;opacity:0.8;isolation:isolate"></path><path d="M189.85,233.54c.62,1,.71,1.5-.19,1.32s-1-.81-1.22-.14a3.25,3.25,0,0,0-.07,1.32,1.57,1.57,0,0,1-.73.24c-.29,0-1-.24-.67-.75s1-.17.32-.51-.82.26-1.13-.25-1.16-1-.37-1.12.23-.36.79-.13,1.28.2.9-.16-.73-.73-.1-.73,1-.31,1.1.12-.5.58.1.73S189.57,233.09,189.85,233.54Z" style="opacity:0.1;isolation:isolate"></path><path d="M126.86,233.5c-1.65,1.91-2.52,1.76-2.75.92s-1.39-.4-2-.68-1.44-.36-1.74-.63-.88.26-.59-.74.63-1.25.75-1.92a1.35,1.35,0,0,1,.61-1.1c.48-.44-.85-1.6.35-1.51s1-1,2.11-.49,1.13.91,2.1,1.09,1.11-.62,1.44.37.94.94.52,1.56a2.12,2.12,0,0,0-.33,1.29A3.47,3.47,0,0,1,126.86,233.5Z" style="fill:#049DD9"></path><path d="M126.86,233.5c-1.65,1.91-2.52,1.76-2.75.92s-1.39-.4-2-.68-1.44-.36-1.74-.63-.88.26-.59-.74.63-1.25.75-1.92a1.35,1.35,0,0,1,.61-1.1c.48-.44-.85-1.6.35-1.51s1-1,2.11-.49,1.13.91,2.1,1.09,1.11-.62,1.44.37.94.94.52,1.56a2.12,2.12,0,0,0-.33,1.29A3.47,3.47,0,0,1,126.86,233.5Z" style="fill:#fff;opacity:0.8;isolation:isolate"></path><path d="M125.79,230.51c.62,1,.71,1.51-.18,1.32s-1-.81-1.23-.13a3.1,3.1,0,0,0-.06,1.31,1.59,1.59,0,0,1-.74.25c-.29,0-1-.25-.67-.76s1-.17.32-.5-.82.26-1.13-.26-1.16-1-.37-1.11.23-.36.79-.13,1.29.19.91-.17-.74-.72-.1-.73,1-.3,1.09.13-.5.58.1.72S125.52,230.06,125.79,230.51Z" style="opacity:0.1;isolation:isolate"></path></g><g id="freepik--Character--inject-164"><path d="M251.84,269.57h110.3a4.21,4.21,0,0,1,4.21,4.21v65.39a18.48,18.48,0,0,1-18.48,18.48H266.12a18.48,18.48,0,0,1-18.48-18.48V273.78A4.21,4.21,0,0,1,251.84,269.57Z" transform="translate(613.99 627.22) rotate(180)" style="fill:#263238"></path><path d="M251.84,269.57h110.3a4.21,4.21,0,0,1,4.21,4.21v65.39a18.48,18.48,0,0,1-18.48,18.48H266.12a18.48,18.48,0,0,1-18.48-18.48V273.78A4.21,4.21,0,0,1,251.84,269.57Z" transform="translate(613.99 627.22) rotate(180)" style="fill:#fff;opacity:0.4;isolation:isolate"></path><path d="M193.22,298.71h54.41a0,0,0,0,1,0,0v98.12a18.84,18.84,0,0,1-18.84,18.84H212.06a18.84,18.84,0,0,1-18.84-18.84V298.71A0,0,0,0,1,193.22,298.71Z" transform="translate(440.86 714.39) rotate(180)" style="fill:#263238"></path><path d="M193.22,298.71h54.41a0,0,0,0,1,0,0v98.12a18.84,18.84,0,0,1-18.84,18.84H212.06a18.84,18.84,0,0,1-18.84-18.84V298.71A0,0,0,0,1,193.22,298.71Z" transform="translate(440.86 714.39) rotate(180)" style="fill:#fff;opacity:0.4;isolation:isolate"></path><path d="M193.22,415.68h31.3V314.36a15.65,15.65,0,0,0-15.65-15.65h0a15.65,15.65,0,0,0-15.65,15.65Z" style="fill:#fff;opacity:0.5;isolation:isolate"></path><rect x="231.11" y="376.53" width="116.02" height="39.14" transform="translate(578.24 792.21) rotate(180)" style="fill:#263238"></rect><rect x="231.11" y="376.53" width="116.02" height="39.14" transform="translate(578.24 792.21) rotate(180)" style="fill:#fff;opacity:0.4;isolation:isolate"></rect><rect x="215.2" y="348.91" width="140.89" height="41.07" rx="19.15" transform="translate(571.28 738.89) rotate(180)" style="fill:#263238"></rect><rect x="215.2" y="348.91" width="140.89" height="41.07" rx="19.15" transform="translate(571.28 738.89) rotate(180)" style="fill:#fff;opacity:0.6000000000000001;isolation:isolate"></rect><rect x="302.82" y="348.91" width="52.98" height="41.07" rx="19.15" transform="translate(658.62 738.89) rotate(180)" style="opacity:0.2;isolation:isolate"></rect><g id="freepik--group--inject-164"><path d="M261,265.53l1.58-5.35a11.72,11.72,0,0,1,0-3.82c.4-1.32,7-5.53,7.78-5.47s2.3,5.86,2.34,6.65-4.63,4.75-4.87,4.75-1.56-.13-1.56-.13l-1.18,5.14Z" style="fill:#e4897b"></path><path d="M279.85,271.21s-.57.94-1.54,2.38c-.53.77-1.17,1.68-1.89,2.68s-1.4,1.88-2.2,2.86c-4.42,5.51-10.54,11.43-14.87,8.82-5.16-3.12.92-26.08.92-26.08l6.86,1.16s-2.44,13-1.91,13.15c.15,0,.65-1.11,1.38-2.83s1.76-4.15,2.88-6.45c1.54-3.17,3.31-6.18,5-7.24l4.35,3.9.19,1.36Z" style="fill:#049DD9"></path><path d="M278.31,273.59c-.53.77-1.17,1.68-1.89,2.68s-1.4,1.88-2.2,2.86a79.56,79.56,0,0,0-7.62-5.78c.76-1.77,1.76-4.15,2.88-6.45A39.61,39.61,0,0,1,278.31,273.59Z" style="fill:#fff;opacity:0.6000000000000001;isolation:isolate"></path><path d="M279.85,271.21s-1.35,2.21-3.43,5.06c-1.05-6,.77-13.11.77-13.11l1.79,1.76Z" style="opacity:0.2;isolation:isolate"></path><path d="M328.46,306.32H287.57c-.74-4.25-1.64-9-2.78-14-1-4.35-2.14-8.91-3.51-13.55a163.94,163.94,0,0,0-6.84-19.15,84.48,84.48,0,0,1,11.43-3.88,156.12,156.12,0,0,1,17.29-3.63,79.34,79.34,0,0,1,12.14-.33,60.47,60.47,0,0,1,3.11,7.51c1,2.65,2.06,6.05,3.22,10.24.29,1.05.58,2.15.87,3.29.1.39.19.78.29,1.17,1,4,2,8.55,2.93,13.72q.58,3.24,1.14,6.79Q327.73,300,328.46,306.32Z" style="fill:#049DD9"></path><path d="M293.52,237.58c1.55,5.58,5.21,15.39,10.47,17,0,0-3.87,6.33-9.66,6.86-3.69.33-5.73-3.83-5.73-3.83,3.76-.7,2.32-3.45-.64-6.91Z" style="fill:#e4897b"></path><path d="M291.26,242.93,288,250.71a19,19,0,0,1,1.89,2.56c3.69.28,6.34-5.58,5.44-8C295,244.33,291.91,243.73,291.26,242.93Z" style="opacity:0.2;isolation:isolate"></path><path d="M281.85,227.94c3.25,2,2,5.69-4.93,11.66-3.05-3.64-3.84-10.91-1.61-12.84S279,226.2,281.85,227.94Z" style="fill:#263238"></path><path d="M295.65,233.24c0,7.71.36,12.23-3.28,16.4-5.49,6.28-15.18,3.33-17.47-4.24-2-6.8-1.69-18.28,5.66-21.78a10.51,10.51,0,0,1,15.09,9.62Z" style="fill:#e4897b"></path><path d="M284.3,236c0,.62-.27,1.15-.68,1.17s-.76-.46-.8-1.08.26-1.16.67-1.19S284.22,235.41,284.3,236Z" style="fill:#263238"></path><path d="M277.19,236.46c0,.62-.27,1.15-.68,1.17s-.77-.46-.81-1.09.27-1.15.68-1.17S277.15,235.83,277.19,236.46Z" style="fill:#263238"></path><path d="M279.53,236.61a22.62,22.62,0,0,1-2.68,5.53,3.61,3.61,0,0,0,3,.38Z" style="fill:#de5753"></path><path d="M286.11,233.67a.39.39,0,0,0,.23-.07.37.37,0,0,0,.05-.52,3.66,3.66,0,0,0-3.08-1.34.37.37,0,0,0-.33.39v0a.38.38,0,0,0,.41.32h0a2.9,2.9,0,0,1,2.42,1.08A.4.4,0,0,0,286.11,233.67Z" style="fill:#263238"></path><path d="M273.81,234.25a.39.39,0,0,0,.32-.23,2.93,2.93,0,0,1,2-1.78.38.38,0,0,0,.29-.44.36.36,0,0,0-.42-.29,3.66,3.66,0,0,0-2.52,2.23.36.36,0,0,0,.2.48h0A.41.41,0,0,0,273.81,234.25Z" style="fill:#263238"></path><path d="M292.19,226.61c-3.52,1.44-2.85,5.29,3,12.29,3.6-3.09,5.56-10.14,3.67-12.39S295.27,225.35,292.19,226.61Z" style="fill:#263238"></path><path d="M299.68,239.17a7.3,7.3,0,0,1-3.22,4.59c-2.19,1.35-4-.43-4-2.86,0-2.19,1.15-5.55,3.63-5.91S300.19,236.84,299.68,239.17Z" style="fill:#e4897b"></path><path d="M281.1,244.46a19.28,19.28,0,0,1,1.58,2.28l.45-.18c2.06-.83,2.74-1.89,2.87-2.81a2.83,2.83,0,0,0-.16-1.34,2.67,2.67,0,0,0-.35-.69,10.58,10.58,0,0,1-3.69,2.45C281.38,244.36,281.1,244.46,281.1,244.46Z" style="fill:#263238"></path><path d="M281.8,244.17l.48.66c1.93-.79,3.19-1.59,3.56-2.42a2.67,2.67,0,0,0-.35-.69A10.58,10.58,0,0,1,281.8,244.17Z" style="fill:#fff"></path><path d="M283.13,246.56c2.06-.83,2.74-1.89,2.87-2.81a7.12,7.12,0,0,0-2.1,1.36A2.72,2.72,0,0,0,283.13,246.56Z" style="fill:#a24e3f"></path><path d="M291.67,228.11s-9.1-4.47-14.84,1.23a7.65,7.65,0,0,1,4.25-3.63s-4.5-.19-5.75,3l0-1.93-2.72.58s1.3-6.09,6.19-6.29a4.62,4.62,0,0,0-3.45.67s2.56-5.73,10.6-4.89,12,7.77,11.51,10.06S291.67,228.11,291.67,228.11Z" style="fill:#263238"></path><path d="M284,319.41s-62.23-8.94-65.51,4.71C215,338.56,265,348.3,294.83,349.31s38.42-6.09,33.63-43H287.58Z" style="fill:#263238"></path><path d="M284,319.41s-62.23-8.94-65.51,4.71C215,338.56,265,348.3,294.83,349.31s38.42-6.09,33.63-43H287.58Z" style="opacity:0.2;isolation:isolate"></path><polygon points="249.34 347.88 236.3 347.88 230.04 347.89 229.29 341.3 235.08 340.53 249.22 338.63 249.34 347.88" style="fill:#e4897b"></polygon><path d="M230.7,340.47l1.59,7.52a.77.77,0,0,1-.61.91l-3.75.67s-5,1.27-6.37.38c-4.09-2.61-8-19.16-6.36-20.39.61-.45,1.66.23,2.19.77,1.68,1.72,5.25,6.49,6.67,7.9,1.65,1.66,4.58,1.71,5.87,1.64A.75.75,0,0,1,230.7,340.47Z" style="fill:#263238"></path><polygon points="249.34 347.88 236.3 347.88 235.08 340.53 249.22 338.63 249.34 347.88" style="opacity:0.2;isolation:isolate"></polygon><path d="M230.7,340.47l1.59,7.52a.77.77,0,0,1-.61.91l-3.75.67s-5,1.27-6.37.38c-4.09-2.61-8-19.16-6.36-20.39.61-.45,1.66.23,2.19.77,1.68,1.72,5.25,6.49,6.67,7.9,1.65,1.66,4.58,1.71,5.87,1.64A.75.75,0,0,1,230.7,340.47Z" style="fill:#fff;opacity:0.2;isolation:isolate"></path><polygon points="268.39 336.24 280.76 340.35 286.71 342.33 285.33 348.82 279.59 347.72 265.58 345.04 268.39 336.24" style="fill:#e4897b"></polygon><path d="M283.73,349.15l.87-7.63a.76.76,0,0,1,.87-.67l3.77.55s5.12.37,6.16,1.66c3.05,3.77,1.56,20.71-.41,21.35-.72.23-1.51-.75-1.84-1.43-1-2.15-2.93-7.81-3.82-9.6-1.05-2.09-3.81-3.07-5.06-3.41A.76.76,0,0,1,283.73,349.15Z" style="fill:#263238"></path><polygon points="268.39 336.24 280.76 340.35 279.59 347.72 265.58 345.04 268.39 336.24" style="opacity:0.2;isolation:isolate"></polygon><polygon points="277.44 348.87 273.91 349.2 276.02 337 280.07 339.13 277.44 348.87" style="fill:#049DD9"></polygon><polygon points="277.44 348.87 273.91 349.2 276.02 337 280.07 339.13 277.44 348.87" style="fill:#fff;opacity:0.6000000000000001;isolation:isolate"></polygon><path d="M283.73,349.15l.87-7.63a.76.76,0,0,1,.87-.67l3.77.55s5.12.37,6.16,1.66c3.05,3.77,1.56,20.71-.41,21.35-.72.23-1.51-.75-1.84-1.43-1-2.15-2.93-7.81-3.82-9.6-1.05-2.09-3.81-3.07-5.06-3.41A.76.76,0,0,1,283.73,349.15Z" style="fill:#fff;opacity:0.2;isolation:isolate"></path><path d="M289.25,353.29a2.66,2.66,0,0,1-.23,1.62,1,1,0,0,1-.92.46.59.59,0,0,1-.55-.28c-.53-.9.71-3.67.86-4a.16.16,0,0,1,.17-.1.19.19,0,0,1,.17.14A10.56,10.56,0,0,1,289.25,353.29Zm-1.47,1.33a.79.79,0,0,0,.08.26.22.22,0,0,0,.22.11.64.64,0,0,0,.63-.31,4.28,4.28,0,0,0-.15-2.95A8.33,8.33,0,0,0,287.78,354.62Z" style="fill:#049DD9"></path><path d="M288.78,351.18l0,.08c-.35.89-1.87,2.65-2.75,2.53a.65.65,0,0,1-.53-.6,1.11,1.11,0,0,1,.15-.85c.63-1,2.83-1.34,2.95-1.34a.15.15,0,0,1,.17.09A.16.16,0,0,1,288.78,351.18ZM285.83,353v.09c.06.26.17.27.22.28.51.07,1.68-1.07,2.19-2a4,4,0,0,0-2.31,1.12.69.69,0,0,0-.11.46Z" style="fill:#049DD9"></path><path d="M237.48,339.57s57.89-22.48,75.62-18.73,17.81,13,8.82,21.68-22.41,5.32-22.41,5.32,10.55-6.32,9.81-10.22-7.44,5-7.44,5-35,8.55-63.87,6.3Z" style="fill:#263238"></path><polygon points="236.78 339.39 240.03 337.9 241.9 350.08 237.38 349.35 236.78 339.39" style="fill:#049DD9"></polygon><polygon points="236.78 339.39 240.03 337.9 241.9 350.08 237.38 349.35 236.78 339.39" style="fill:#fff;opacity:0.6000000000000001;isolation:isolate"></polygon><path d="M280.08,233.6h-8.35v4.25a.69.69,0,0,0,.69.69h6.23a.67.67,0,0,0,.62-.39l.57-1.17.58,1.17a.67.67,0,0,0,.62.39h6.23a.69.69,0,0,0,.69-.69V233.6Z" style="fill:#049DD9"></path><rect x="272.69" y="234.38" width="5.43" height="3.38" style="opacity:0.6000000000000001;isolation:isolate"></rect><rect x="281.56" y="234.38" width="5.43" height="3.38" transform="translate(568.56 472.14) rotate(180)" style="fill:#fff;opacity:0.7000000000000001"></rect><polygon points="287.96 233.6 295.66 233.6 296.27 234.93 295.48 234.94 295.05 234.27 287.64 235.36 287.96 233.6" style="fill:#049DD9"></polygon><path d="M259.82,301.51c0-1.55-.16-2.08.53-2.71s1.49-1.05,1.85-.69a10.22,10.22,0,0,0,1.25,1.25c.13,0,1.05-1.15,1.32-1.12s.43,0,.72-.72-.1-.73.66-.89.7-.6,1.26-.2,2,1.12,1.91,1.45,1.67.3,1.81,0,.3-2.14,1-2,1.52-.36,1.75-.29a.83.83,0,0,1,.66.85,9.51,9.51,0,0,1,.16,1.42c0,.3,1.39-.44,1.4-1.21a.83.83,0,0,1,.88-.93c.36,0,1,.1,1.15.41s.37.51.3.81,0,.56.56.69,1.35.59,1.35,0a1.75,1.75,0,0,1,.46-1.19,1.19,1.19,0,0,1,.7-.13c.13.06,1.41.33,1.68.39s.79-.49.79.27-.24,1,0,1.25a2.49,2.49,0,0,0,.92.73c.2,0,1.78.52,2.31-.2s1.56-1,1.78-.5,1.14,1,.9,1.56-1.27,1.21-.18,1.36,1.62.58,2.11-.08.7-1.29,1.42-.73,1.65.46,1.49,1.16a3,3,0,0,1-.63,1.12c0,.1-.3,1,1,.79s2-.07,2.14,1a21.74,21.74,0,0,1,.16,2.31c0,.33-36.72,5-38.88,3.33s-2.23-1.85-2.89-3.3-.49-1.28,0-3.2,1.22-2.3,1.65-2.07,1.09,1.12,1.62.85A3.19,3.19,0,0,0,259.82,301.51Z" style="fill:#049DD9"></path><path d="M259.82,301.51c0-1.55-.16-2.08.53-2.71s1.49-1.05,1.85-.69a10.22,10.22,0,0,0,1.25,1.25c.13,0,1.05-1.15,1.32-1.12s.43,0,.72-.72-.1-.73.66-.89.7-.6,1.26-.2,2,1.12,1.91,1.45,1.67.3,1.81,0,.3-2.14,1-2,1.52-.36,1.75-.29a.83.83,0,0,1,.66.85,9.51,9.51,0,0,1,.16,1.42c0,.3,1.39-.44,1.4-1.21a.83.83,0,0,1,.88-.93c.36,0,1,.1,1.15.41s.37.51.3.81,0,.56.56.69,1.35.59,1.35,0a1.75,1.75,0,0,1,.46-1.19,1.19,1.19,0,0,1,.7-.13c.13.06,1.41.33,1.68.39s.79-.49.79.27-.24,1,0,1.25a2.49,2.49,0,0,0,.92.73c.2,0,1.78.52,2.31-.2s1.56-1,1.78-.5,1.14,1,.9,1.56-1.27,1.21-.18,1.36,1.62.58,2.11-.08.7-1.29,1.42-.73,1.65.46,1.49,1.16a3,3,0,0,1-.63,1.12c0,.1-.3,1,1,.79s2-.07,2.14,1a21.74,21.74,0,0,1,.16,2.31c0,.33-36.72,5-38.88,3.33s-2.23-1.85-2.89-3.3-.49-1.28,0-3.2,1.22-2.3,1.65-2.07,1.09,1.12,1.62.85A3.19,3.19,0,0,0,259.82,301.51Z" style="fill:#fff;opacity:0.6000000000000001;isolation:isolate"></path><path d="M259.3,305.26c-.59-2-1.29-2.47-.35-3.56s1.09-1.08,1.73-.89,1.09.33,1-.6-1-.68.35-1.45,1.23-.91,2.17-.86,2.13.2,1.58.86-1.73.42-.54.67,1,1.53,1.63.2.69-1.21.64-1.74-.74-.83.6-.83,2.32-1.09,2.42,0,.59.89,0,1.38.54,1,1.24.89,2.12.2,2.07-.57-.19-.62,0-1.46-.5-1.33.59-1.08,1.88.34,2,.89.15.74,0,1,.65,2.58,1.64,1.34.84-.45,1.33-1.53-.44-2,.89-1.19,2.18.3,1.83,1-1.19.79-.49,1.23,1.68,1.54,2.27.45-.2-1.43.84-1.39,1.49-.74,1.58.35-.54.59,0,1.29,1.68,1.79,2.18.69.05-2.67.64-1.66,1.24,1.6,1,1.95-1.2-.54-.48.45.19,1.34,1.08,1,.35-1.22,1.63-.2,1.43,1.09,1.28,2.42a5.46,5.46,0,0,1-4.6,5.05C285.31,310.26,260.43,309.07,259.3,305.26Z" style="fill:#049DD9"></path><path d="M259.3,305.26c-.59-2-1.29-2.47-.35-3.56s1.09-1.08,1.73-.89,1.09.33,1-.6-1-.68.35-1.45,1.23-.91,2.17-.86,2.13.2,1.58.86-1.73.42-.54.67,1,1.53,1.63.2.69-1.21.64-1.74-.74-.83.6-.83,2.32-1.09,2.42,0,.59.89,0,1.38.54,1,1.24.89,2.12.2,2.07-.57-.19-.62,0-1.46-.5-1.33.59-1.08,1.88.34,2,.89.15.74,0,1,.65,2.58,1.64,1.34.84-.45,1.33-1.53-.44-2,.89-1.19,2.18.3,1.83,1-1.19.79-.49,1.23,1.68,1.54,2.27.45-.2-1.43.84-1.39,1.49-.74,1.58.35-.54.59,0,1.29,1.68,1.79,2.18.69.05-2.67.64-1.66,1.24,1.6,1,1.95-1.2-.54-.48.45.19,1.34,1.08,1,.35-1.22,1.63-.2,1.43,1.09,1.28,2.42a5.46,5.46,0,0,1-4.6,5.05C285.31,310.26,260.43,309.07,259.3,305.26Z" style="fill:#fff;opacity:0.7000000000000001;isolation:isolate"></path><path d="M295,309.19h2.11V307.4a6.28,6.28,0,0,0-.68.07c-1.25.2-1-.69-.95-.79a2.85,2.85,0,0,0,.62-1.12c.17-.69-.75-.59-1.48-1.15s-.92.06-1.42.72-1,.23-2.11.09-.06-.78.18-1.37-.69-1-.9-1.55-1.25-.23-1.78.49-2.11.23-2.31.2a2.39,2.39,0,0,1-.92-.73c-.24-.29,0-.49,0-1.25s-.53-.2-.79-.26-1.55-.33-1.69-.4a1.35,1.35,0,0,0-.69.13,1.78,1.78,0,0,0-.46,1.19c0,.63-.82.16-1.35,0s-.63-.39-.56-.69-.17-.49-.3-.8-.79-.42-1.15-.42a.84.84,0,0,0-.88.94c0,.77-1.43,1.5-1.4,1.21a11.1,11.1,0,0,0-.16-1.42.86.86,0,0,0-.66-.86c-.23-.07-1,.46-1.75.3s-.89,1.68-1,2-1.91.32-1.81,0-1.36-1.06-1.92-1.46-.49,0-1.25.2-.36.13-.66.89-.46.76-.72.73-1.19,1.12-1.32,1.12a10.22,10.22,0,0,1-1.25-1.25c-.36-.37-1.16.06-1.85.69s-.56,1.15-.53,2.7a3.16,3.16,0,0,1-.95.86c-.53.26-1.19-.63-1.62-.86s-1.15.17-1.65,2.08-.66,1.75,0,3.2.73,1.61,2.89,3.29c1.73,1.35,25.76-1.4,35.14-2.71Z" style="fill:#049DD9"></path><path d="M295,309.19h2.11V307.4a6.28,6.28,0,0,0-.68.07c-1.25.2-1-.69-.95-.79a2.85,2.85,0,0,0,.62-1.12c.17-.69-.75-.59-1.48-1.15s-.92.06-1.42.72-1,.23-2.11.09-.06-.78.18-1.37-.69-1-.9-1.55-1.25-.23-1.78.49-2.11.23-2.31.2a2.39,2.39,0,0,1-.92-.73c-.24-.29,0-.49,0-1.25s-.53-.2-.79-.26-1.55-.33-1.69-.4a1.35,1.35,0,0,0-.69.13,1.78,1.78,0,0,0-.46,1.19c0,.63-.82.16-1.35,0s-.63-.39-.56-.69-.17-.49-.3-.8-.79-.42-1.15-.42a.84.84,0,0,0-.88.94c0,.77-1.43,1.5-1.4,1.21a11.1,11.1,0,0,0-.16-1.42.86.86,0,0,0-.66-.86c-.23-.07-1,.46-1.75.3s-.89,1.68-1,2-1.91.32-1.81,0-1.36-1.06-1.92-1.46-.49,0-1.25.2-.36.13-.66.89-.46.76-.72.73-1.19,1.12-1.32,1.12a10.22,10.22,0,0,1-1.25-1.25c-.36-.37-1.16.06-1.85.69s-.56,1.15-.53,2.7a3.16,3.16,0,0,1-.95.86c-.53.26-1.19-.63-1.62-.86s-1.15.17-1.65,2.08-.66,1.75,0,3.2.73,1.61,2.89,3.29c1.73,1.35,25.76-1.4,35.14-2.71Z" style="fill:#fff;opacity:0.6000000000000001;isolation:isolate"></path><path d="M257.55,305.94S256,304,257,303.5s2.5-.59,2.57,0,3.1,1.72,2.77.46-.86-3.43.26-3,2.51,1.58,2.37,2,.53.93,1.19.4.66-2.51,1.32-1.92a14.94,14.94,0,0,1,1.58,1.92s1.65.53,2.11,0-.39-1.85,0-2-.2-.79,1-.53,2.18-.13,2.11,1-2.11,1.19-1.25,1.49a2.79,2.79,0,0,0,2.3,0c.47-.37.27-1.16.86-1.23s1.45-.39,2.11.07.66.73.66,1.16-.72,1.28.53.75S281,304,281,302.78s-2.17-2.1,0-1.91,2.37-1.56,2.7,0a5.44,5.44,0,0,1,0,2.23,1.19,1.19,0,0,0,1.39.83c.66-.14,1-.06,1-.83s-1.65-2.07,0-1.48a12.76,12.76,0,0,1,3.23,1.48c.13.23-.46.56-.46.76s1.91,1.06,2.5.2-.39-.27.6-.86,1.12-.39,2-.1,1.71,0,1.32.63a9.69,9.69,0,0,0-.86,3.3c.13.19,3.44,1.18,1,2.17S260.19,310,257.55,305.94Z" style="fill:#049DD9"></path><path d="M257.55,305.94S256,304,257,303.5s2.5-.59,2.57,0,3.1,1.72,2.77.46-.86-3.43.26-3,2.51,1.58,2.37,2,.53.93,1.19.4.66-2.51,1.32-1.92a14.94,14.94,0,0,1,1.58,1.92s1.65.53,2.11,0-.39-1.85,0-2-.2-.79,1-.53,2.18-.13,2.11,1-2.11,1.19-1.25,1.49a2.79,2.79,0,0,0,2.3,0c.47-.37.27-1.16.86-1.23s1.45-.39,2.11.07.66.73.66,1.16-.72,1.28.53.75S281,304,281,302.78s-2.17-2.1,0-1.91,2.37-1.56,2.7,0a5.44,5.44,0,0,1,0,2.23,1.19,1.19,0,0,0,1.39.83c.66-.14,1-.06,1-.83s-1.65-2.07,0-1.48a12.76,12.76,0,0,1,3.23,1.48c.13.23-.46.56-.46.76s1.91,1.06,2.5.2-.39-.27.6-.86,1.12-.39,2-.1,1.71,0,1.32.63a9.69,9.69,0,0,0-.86,3.3c.13.19,3.44,1.18,1,2.17S260.19,310,257.55,305.94Z" style="fill:#fff;opacity:0.7000000000000001;isolation:isolate"></path><path d="M299.18,304.82A22.9,22.9,0,0,1,285,324.6H267.28a22,22,0,0,1-4.72-2.62,22.69,22.69,0,0,1-9.46-17.16Z" style="fill:#263238"></path><path d="M299.18,304.82A22.9,22.9,0,0,1,285,324.6H267.28a22,22,0,0,1-4.72-2.62,22.69,22.69,0,0,1-9.46-17.16Z" style="fill:#fff;opacity:0.7000000000000001;isolation:isolate"></path><rect x="262.56" y="321.83" width="27.16" height="2.77" style="fill:#263238"></rect><rect x="262.56" y="321.83" width="27.16" height="2.77" style="fill:#fff;opacity:0.6000000000000001;isolation:isolate"></rect><path d="M325.72,287.75l-40.93,4.61c-1-4.35-2.14-8.91-3.51-13.55l41.22-5.95c.1.39.19.78.29,1.17C323.78,278,324.77,282.58,325.72,287.75Z" style="fill:#fff;opacity:0.6000000000000001;isolation:isolate"></path><path d="M326.86,294.54c-7.14,7.66-18.77,11.17-21,11.78l-.37.1-.24-.1-2.91-4.52s13.83-19.12,13.83-20.43-2.65-15.83-2.65-15.83a111.39,111.39,0,0,0,9.25,8.49C324.19,279.69,325.61,286.5,326.86,294.54Z" style="opacity:0.2;isolation:isolate"></path><path d="M308.33,297.73l-6.7,6.2-1.9-.59c-.48-.14-7.3,1.78-7.26,2.63a33.6,33.6,0,0,0,3.58,7.27c.69.68,6.34-2.6,7.32-2.95s1.57-2.45,1.57-2.45l7.3-6.1Z" style="fill:#e4897b"></path><path d="M329.71,283.56c-1,7.38-20.11,22.76-20.11,22.76l-5.61-6s12.9-13.75,14.83-18.39a4.8,4.8,0,0,0-.26-2.58,60.5,60.5,0,0,0-2.49-6.78c-.6-1.45-1.27-3-2-4.65,0,0-1.59-6.07-1.19-9.63a15.84,15.84,0,0,1,2.41-6.46c4.74.45,9.26,8.88,11.95,17.23a60,60,0,0,1,1.95,7.57A24.1,24.1,0,0,1,329.71,283.56Z" style="fill:#049DD9"></path><path d="M329.2,276.62a73.43,73.43,0,0,0-10.64,2.72,60.5,60.5,0,0,0-2.49-6.78,40.08,40.08,0,0,1,11.18-3.51A60,60,0,0,1,329.2,276.62Z" style="fill:#fff;opacity:0.6000000000000001;isolation:isolate"></path><path d="M224.46,338.36a2.65,2.65,0,0,1-.54-1.56,1,1,0,0,1,.6-.83.62.62,0,0,1,.62,0c.88.56,1.06,3.59,1.07,3.93a.16.16,0,0,1-.1.17.2.2,0,0,1-.22-.05A11.29,11.29,0,0,1,224.46,338.36Zm.69-1.86a.61.61,0,0,0-.19-.2.2.2,0,0,0-.24,0,.65.65,0,0,0-.42.56,4.32,4.32,0,0,0,1.49,2.55A8.1,8.1,0,0,0,225.15,336.5Z" style="fill:#049DD9"></path><path d="M225.85,340v-.09c-.1-.95.44-3.21,1.27-3.51a.64.64,0,0,1,.75.29,1.1,1.1,0,0,1,.26.82c-.09,1.19-1.89,2.49-2,2.55a.18.18,0,0,1-.2,0A.16.16,0,0,1,225.85,340Zm1.76-3-.05-.08c-.17-.2-.27-.16-.32-.14-.49.16-1,1.72-1.05,2.74.51-.42,1.47-1.3,1.54-2.06a.74.74,0,0,0-.12-.46Z" style="fill:#049DD9"></path><path d="M270.73,251.27c.44-.39,1.45.42,1.63.09s.85.54,1,.53,0,1.3,0,1.42a1.24,1.24,0,0,1-.4.66c-.3.24-.83,1-.94.7s-1-.82-1.07-1,.2-.61.05-.83S269.35,252.49,270.73,251.27Z" style="fill:#049DD9"></path><path d="M270.73,251.27c.44-.39,1.45.42,1.63.09s.85.54,1,.53,0,1.3,0,1.42a1.24,1.24,0,0,1-.4.66c-.3.24-.83,1-.94.7s-1-.82-1.07-1,.2-.61.05-.83S269.35,252.49,270.73,251.27Z" style="fill:#fff;opacity:0.6000000000000001;isolation:isolate"></path><path d="M272.41,254.51c-.05,0-1.33-.75-.85-.86s.25-.57.24-.8,0-.63.52-.53.59.12.43.49-.41.66-.27.75S272.41,254.51,272.41,254.51Z" style="opacity:0.2;isolation:isolate"></path></g><path d="M327.08,298.71h54.41a0,0,0,0,1,0,0v98.13a18.84,18.84,0,0,1-18.84,18.84H345.92a18.84,18.84,0,0,1-18.84-18.84V298.71A0,0,0,0,1,327.08,298.71Z" transform="translate(708.57 714.39) rotate(180)" style="fill:#263238"></path><path d="M327.08,298.71h54.41a0,0,0,0,1,0,0v98.13a18.84,18.84,0,0,1-18.84,18.84H345.92a18.84,18.84,0,0,1-18.84-18.84V298.71A0,0,0,0,1,327.08,298.71Z" transform="translate(708.57 714.39) rotate(180)" style="fill:#fff;opacity:0.6000000000000001;isolation:isolate"></path><path d="M327.08,415.68h31.3V314.36a15.65,15.65,0,0,0-15.65-15.65h0a15.65,15.65,0,0,0-15.65,15.65Z" style="fill:#fff;opacity:0.4;isolation:isolate"></path><path d="M234.52,408.72c2.49.45,4.51,2.19,3.15,2.6s-.93,1.12-.43,2.38,3.57,2.1.09,2-3.76,0-4.23-.07,0-1.39-.75-.62-2-.75-1.8-1.45,1.18-.61,1-1.25,1.8-2.27,1.8-2.27S233.05,408.45,234.52,408.72Z" style="fill:#049DD9"></path><path d="M234.52,408.72c2.49.45,4.51,2.19,3.15,2.6s-.93,1.12-.43,2.38,3.57,2.1.09,2-3.76,0-4.23-.07,0-1.39-.75-.62-2-.75-1.8-1.45,1.18-.61,1-1.25,1.8-2.27,1.8-2.27S233.05,408.45,234.52,408.72Z" style="fill:#fff;opacity:0.8;isolation:isolate"></path><path d="M236.86,411.51c-.19-1-.87-1.32-1.17-1s-.38-.05-.52.64.26.51-.15.69-1.19-.26-.92.37,1.34.27.93.77-.81.85-.23,1-.2.86.58.13.69-.62,1-.42S236.86,411.51,236.86,411.51Z" style="opacity:0.1;isolation:isolate"></path><path d="M191.77,409c2.5.45,4.52,2.19,3.15,2.6s-.92,1.12-.43,2.39,3.57,2.1.09,2-3.75,0-4.22-.08,0-1.38-.75-.62-2.05-.74-1.81-1.45,1.19-.6,1-1.24,1.81-2.27,1.81-2.27S190.3,408.7,191.77,409Z" style="fill:#049DD9"></path><path d="M191.77,409c2.5.45,4.52,2.19,3.15,2.6s-.92,1.12-.43,2.39,3.57,2.1.09,2-3.75,0-4.22-.08,0-1.38-.75-.62-2.05-.74-1.81-1.45,1.19-.6,1-1.24,1.81-2.27,1.81-2.27S190.3,408.7,191.77,409Z" style="fill:#fff;opacity:0.8;isolation:isolate"></path><path d="M194.11,411.75c-.18-1-.87-1.32-1.16-1s-.38-.06-.53.63.26.52-.14.7-1.19-.27-.93.36,1.34.27.93.77-.81.85-.23,1-.19.87.58.14.69-.63,1-.43S194.11,411.75,194.11,411.75Z" style="opacity:0.1;isolation:isolate"></path><path d="M326.46,348.86c-1.92,1.65-4.54,2.13-4,.81s-.3-1.42-1.59-1.83-3.88,1.46-1.58-1.16,2.38-2.91,2.71-3.24,1.09.85,1-.2,1.86-1.12,2.26-.49-.28,1.3.32,1.58.63,2.84.63,2.84S327.59,347.88,326.46,348.86Z" style="fill:#049DD9"></path><path d="M326.46,348.86c-1.92,1.65-4.54,2.13-4,.81s-.3-1.42-1.59-1.83-3.88,1.46-1.58-1.16,2.38-2.91,2.71-3.24,1.09.85,1-.2,1.86-1.12,2.26-.49-.28,1.3.32,1.58.63,2.84.63,2.84S327.59,347.88,326.46,348.86Z" style="fill:#fff;opacity:0.8;isolation:isolate"></path><path d="M322.82,348.92c.9.49,1.57.15,1.48-.3s.28-.26-.17-.81-.56-.12-.44-.54.95-.77.29-.95-1.05.87-1.18.24-.15-1.17-.62-.8-.56-.7-.47.36.05.93-.32,1.08S322.82,348.92,322.82,348.92Z" style="opacity:0.1;isolation:isolate"></path><path d="M219.58,297.67c-1.33,2.15-3.69,3.4-3.58,2s-.7-1.26-2.06-1.27-3.26,2.56-1.86-.63,1.4-3.48,1.62-3.9,1.3.48.85-.48,1.44-1.63,2-1.15.13,1.33.78,1.42,1.46,2.51,1.46,2.51S220.36,296.39,219.58,297.67Z" style="fill:#049DD9"></path><path d="M219.58,297.67c-1.33,2.15-3.69,3.4-3.58,2s-.7-1.26-2.06-1.27-3.26,2.56-1.86-.63,1.4-3.48,1.62-3.9,1.3.48.85-.48,1.44-1.63,2-1.15.13,1.33.78,1.42,1.46,2.51,1.46,2.51S220.36,296.39,219.58,297.67Z" style="fill:#fff;opacity:0.8;isolation:isolate"></path><path d="M216.13,298.82c1,.2,1.54-.33,1.32-.73s.19-.33-.4-.72-.57.05-.59-.39.68-1,0-1-.74,1.14-1,.58-.5-1.06-.84-.57-.73-.5-.34.48.33.88,0,1.13S216.13,298.82,216.13,298.82Z" style="opacity:0.1;isolation:isolate"></path><path d="M203.4,408.52c2.17-1.3,2.95-.88,2.9,0s1.19.81,1.65,1.26,1.25.79,1.45,1.15.93,0,.33.88-1,1-1.32,1.59-.33.59-.92.85.29,1.78-.81,1.32-1.3.59-2.16-.2-.79-1.22-1.65-1.7-1.25.24-1.25-.81-.59-1.18,0-1.64a2.05,2.05,0,0,0,.73-1.12A3.4,3.4,0,0,1,203.4,408.52Z" style="fill:#049DD9"></path><path d="M203.4,408.52c2.17-1.3,2.95-.88,2.9,0s1.19.81,1.65,1.26,1.25.79,1.45,1.15.93,0,.33.88-1,1-1.32,1.59-.33.59-.92.85.29,1.78-.81,1.32-1.3.59-2.16-.2-.79-1.22-1.65-1.7-1.25.24-1.25-.81-.59-1.18,0-1.64a2.05,2.05,0,0,0,.73-1.12A3.4,3.4,0,0,1,203.4,408.52Z" style="fill:#fff;opacity:0.8;isolation:isolate"></path><path d="M203.47,411.69c-.27-1.15-.2-1.66.59-1.2s.73,1.1,1.12.52a3.09,3.09,0,0,0,.48-1.23,1.57,1.57,0,0,1,.77,0c.27.12.86.55.4.93s-1-.15-.46.38.86,0,1,.6.79,1.3,0,1.17-.33.27-.79-.12-1.16-.6-.91-.14.46.93-.14.73-1,0-1-.47.66-.39.13-.72S203.59,412.2,203.47,411.69Z" style="opacity:0.1;isolation:isolate"></path><path d="M356.12,409c2.17-1.29,2.95-.88,2.9,0s1.19.82,1.65,1.27,1.25.79,1.45,1.14.92,0,.33.89-1,1-1.32,1.58-.33.59-.92.86.29,1.78-.81,1.32-1.3.59-2.16-.2-.79-1.22-1.65-1.7-1.25.24-1.25-.81-.59-1.18,0-1.65a2.13,2.13,0,0,0,.73-1.12A3.4,3.4,0,0,1,356.12,409Z" style="fill:#049DD9"></path><path d="M356.12,409c2.17-1.29,2.95-.88,2.9,0s1.19.82,1.65,1.27,1.25.79,1.45,1.14.92,0,.33.89-1,1-1.32,1.58-.33.59-.92.86.29,1.78-.81,1.32-1.3.59-2.16-.2-.79-1.22-1.65-1.7-1.25.24-1.25-.81-.59-1.18,0-1.65a2.13,2.13,0,0,0,.73-1.12A3.4,3.4,0,0,1,356.12,409Z" style="fill:#fff;opacity:0.8;isolation:isolate"></path><path d="M356.19,412.18c-.27-1.14-.2-1.65.59-1.19s.73,1.09,1.12.51a3.07,3.07,0,0,0,.48-1.22,1.57,1.57,0,0,1,.77,0c.27.12.86.54.4.92s-1-.14-.46.38.85,0,1,.6.79,1.3,0,1.18-.33.27-.79-.13-1.16-.59-.91-.13.46.92-.14.72-1,0-1-.46.66-.39.13-.72S356.31,412.69,356.19,412.18Z" style="opacity:0.1;isolation:isolate"></path><path d="M225.43,316.87c-.09-2.52.65-3,1.4-2.54s1.29-.64,1.9-.83,1.3-.72,1.71-.72.47-.79.93.14.39,1.35.75,1.92a1.34,1.34,0,0,1,.3,1.23c0,.64,1.7.6.77,1.34s-.11,1.43-1.22,1.79-1.45.11-2.28.63-.4,1.21-1.32.7-1.32,0-1.44-.79a2.08,2.08,0,0,0-.63-1.18A3.4,3.4,0,0,1,225.43,316.87Z" style="fill:#049DD9"></path><path d="M225.43,316.87c-.09-2.52.65-3,1.4-2.54s1.29-.64,1.9-.83,1.3-.72,1.71-.72.47-.79.93.14.39,1.35.75,1.92a1.34,1.34,0,0,1,.3,1.23c0,.64,1.7.6.77,1.34s-.11,1.43-1.22,1.79-1.45.11-2.28.63-.4,1.21-1.32.7-1.32,0-1.44-.79a2.08,2.08,0,0,0-.63-1.18A3.4,3.4,0,0,1,225.43,316.87Z" style="fill:#fff;opacity:0.8;isolation:isolate"></path><path d="M228.23,318.35c-1.13-.32-1.54-.63-.75-1.1s1.3-.11,1-.73a3.1,3.1,0,0,0-.85-1,1.63,1.63,0,0,1,.38-.68c.23-.18.89-.49,1,.1s-.61.79.11.59.43-.75,1-.58,1.53-.06,1,.57.08.42-.49.63-1.08.72-.55.73,1,0,.56.47-.49.87-.89.65,0-.77-.56-.46S228.74,318.49,228.23,318.35Z" style="opacity:0.1;isolation:isolate"></path><path d="M260.31,344.23c2.16-1.29,2.95-.88,2.9,0s1.18.81,1.64,1.26,1.26.79,1.46,1.15.92,0,.32.89-1,1-1.31,1.58-.33.59-.93.86.3,1.78-.81,1.31-1.3.6-2.15-.19-.8-1.23-1.65-1.7-1.26.24-1.26-.81-.59-1.19,0-1.65a2.05,2.05,0,0,0,.73-1.12A3.36,3.36,0,0,1,260.31,344.23Z" style="fill:#049DD9"></path><path d="M260.31,344.23c2.16-1.29,2.95-.88,2.9,0s1.18.81,1.64,1.26,1.26.79,1.46,1.15.92,0,.32.89-1,1-1.31,1.58-.33.59-.93.86.3,1.78-.81,1.31-1.3.6-2.15-.19-.8-1.23-1.65-1.7-1.26.24-1.26-.81-.59-1.19,0-1.65a2.05,2.05,0,0,0,.73-1.12A3.36,3.36,0,0,1,260.31,344.23Z" style="fill:#fff;opacity:0.8;isolation:isolate"></path><path d="M260.37,347.4c-.27-1.14-.2-1.65.59-1.19s.73,1.09,1.13.51a3.16,3.16,0,0,0,.47-1.23,1.6,1.6,0,0,1,.78,0c.26.12.86.55.39.93s-1-.15-.46.38.86,0,1,.6.79,1.3,0,1.18-.33.26-.79-.13-1.16-.59-.91-.13.46.92-.14.72-1,0-1-.46.66-.4.13-.72S260.49,347.91,260.37,347.4Z" style="opacity:0.1;isolation:isolate"></path></g><g id="freepik--Plant--inject-164"><path d="M381.82,369.85s-7.76-9.23-12.72-4.93-2.45,13.44,3.27,13.73a14.41,14.41,0,0,0,9.45-2.88Z" style="fill:#049DD9"></path><path d="M381.82,369.85s-7.76-9.23-12.72-4.93-2.45,13.44,3.27,13.73a14.41,14.41,0,0,0,9.45-2.88Z" style="fill:#fff;opacity:0.2;isolation:isolate"></path><path d="M413.45,346.44s6.51-6.82,10.54-5.66,3.62,17.45-8.89,10.86Z" style="fill:#049DD9"></path><path d="M413.45,346.44s6.51-6.82,10.54-5.66,3.62,17.45-8.89,10.86Z" style="fill:#fff;opacity:0.30000000000000004;isolation:isolate"></path><path d="M390.19,397.34s-21.4-29.28-4-35.21,20.47,23.56,15.51,31.76S390.19,397.34,390.19,397.34Z" style="fill:#049DD9"></path><path d="M400.11,337.4s13.28-30.82-6.38-31.75-21.81,30.56.82,35.13Z" style="fill:#049DD9"></path><path d="M390.19,397.34s-21.4-29.28-4-35.21,20.47,23.56,15.51,31.76S390.19,397.34,390.19,397.34Z" style="fill:#fff;opacity:0.30000000000000004;isolation:isolate"></path><path d="M400.11,337.4s13.28-30.82-6.38-31.75-21.81,30.56.82,35.13Z" style="fill:#fff;opacity:0.30000000000000004;isolation:isolate"></path><path d="M395.4,362.64s-6.45-27.22,6-29.39,24.65,22.42-1,34.78C400.34,368,395.94,365.3,395.4,362.64Z" style="fill:#049DD9"></path><path d="M395.4,362.64s-6.45-27.22,6-29.39,24.65,22.42-1,34.78C400.34,368,395.94,365.3,395.4,362.64Z" style="fill:#fff;opacity:0.2;isolation:isolate"></path><polygon points="374.79 393.19 410.71 393.19 407.71 416.17 377.79 416.17 374.79 393.19" style="fill:#263238"></polygon><path d="M393.47,335.2a25.52,25.52,0,0,1-5-4.88,24.73,24.73,0,0,1-3.52-6.08,18.25,18.25,0,0,1-1.28-6.93,16.43,16.43,0,0,1,1.61-6.78c-.13.57-.25,1.13-.39,1.69l-.21.83c0,.29,0,.57-.08.86-.06.56-.15,1.13-.2,1.69l0,1.7a21.26,21.26,0,0,0,1.44,6.58,32,32,0,0,0,3.21,6,30.16,30.16,0,0,0,2.06,2.74A33.11,33.11,0,0,0,393.47,335.2Z" style="fill:#049DD9"></path><path d="M388.76,308.75a12.52,12.52,0,0,1,3.22,1.1,15.67,15.67,0,0,1,2.84,1.94,15,15,0,0,1,4,5.59,20,20,0,0,1,1.38,6.72c0,1.14-.07,2.28-.12,3.41s-.35,2.24-.58,3.34c0-1.13.07-2.25.1-3.37s-.06-2.23-.17-3.33a27.4,27.4,0,0,0-.56-3.26c-.14-.52-.23-1.07-.4-1.59l-.57-1.53A16.19,16.19,0,0,0,388.76,308.75Z" style="fill:#049DD9"></path><path d="M403.8,335.2a11.7,11.7,0,0,1,6.52,6.26,14.66,14.66,0,0,1,1.22,4.5,6.57,6.57,0,0,1,.06,1.18,9.46,9.46,0,0,1,0,1.19,12.79,12.79,0,0,1-.47,2.31,19.65,19.65,0,0,1-1.88,4.27,29.37,29.37,0,0,1-2.7,3.74,37.61,37.61,0,0,1-6.65,6.27c1.1-1.06,2.17-2.13,3.16-3.27a41.65,41.65,0,0,0,2.89-3.48,24.83,24.83,0,0,0,4.22-7.81,12.08,12.08,0,0,0,.46-2.13,9.75,9.75,0,0,0,0-1.08,6.63,6.63,0,0,0,0-1.09,15,15,0,0,0-1-4.3,12.29,12.29,0,0,0-2.3-3.77A11.49,11.49,0,0,0,403.8,335.2Z" style="fill:#049DD9"></path><path d="M400.11,337.4a24.52,24.52,0,0,1,1.38,6.24,15.27,15.27,0,0,1,0,3.24,7.76,7.76,0,0,1-1,3.19,12.07,12.07,0,0,0-1.81,5.77,27.11,27.11,0,0,0-.15,3.13c0,1,0,2.1.07,3.16a24,24,0,0,1-.69-6.34,15.43,15.43,0,0,1,.4-3.23,10,10,0,0,1,.54-1.57,11,11,0,0,1,.79-1.45,6.88,6.88,0,0,0,.93-2.79,18.47,18.47,0,0,0,.2-3.08,30.06,30.06,0,0,0-.2-3.13C400.44,339.49,400.28,338.45,400.11,337.4Z" style="fill:#049DD9"></path><path d="M391.39,364.92a3,3,0,0,1,1.33,1,10.6,10.6,0,0,1,1,1.41,23.45,23.45,0,0,1,1.34,3.09,48.4,48.4,0,0,1,1.78,6.47c.45,2.18.81,4.38,1.05,6.6a43.86,43.86,0,0,1,.35,6.68c-.15-1.1-.32-2.2-.53-3.29s-.37-2.19-.58-3.28c-.41-2.17-.81-4.35-1.27-6.51s-.95-4.31-1.53-6.44a25.83,25.83,0,0,0-1.05-3.11,11.17,11.17,0,0,0-.73-1.47A3.3,3.3,0,0,0,391.39,364.92Z" style="fill:#049DD9"></path><path d="M385.31,365.87a28.21,28.21,0,0,0-1,6.07,23,23,0,0,0,.44,6,20.09,20.09,0,0,0,2,5.7,29.39,29.39,0,0,0,3.43,5.1c-.39-.34-.77-.69-1.15-1.06a10.48,10.48,0,0,1-1.1-1.11,16.17,16.17,0,0,1-1.86-2.55,18.25,18.25,0,0,1-1.44-2.82c-.2-.49-.32-1-.49-1.52a10.22,10.22,0,0,1-.39-1.54,19.4,19.4,0,0,1-.24-6.31A18.6,18.6,0,0,1,385.31,365.87Z" style="fill:#049DD9"></path><path d="M418.5,349.77a27.69,27.69,0,0,0,3.18-1,8.85,8.85,0,0,0,1.39-.75,12.09,12.09,0,0,0,1.31-1.07,3.2,3.2,0,0,1-.78,1.65,4.43,4.43,0,0,1-1.52,1.09,5.38,5.38,0,0,1-1.8.39A4.2,4.2,0,0,1,418.5,349.77Z" style="fill:#049DD9"></path><path d="M417.17,345.27a4.43,4.43,0,0,1,1.18-1.4A5,5,0,0,1,420,343a3.55,3.55,0,0,1,1.94,0,2.7,2.7,0,0,1,1.5,1.13,6.3,6.3,0,0,0-1.63-.37,5.29,5.29,0,0,0-1.53.22,9.86,9.86,0,0,0-1.53.57Z" style="fill:#049DD9"></path><path d="M378.28,371.23a36.52,36.52,0,0,0-3.95-2.85,5.51,5.51,0,0,0-2.11-.78A4,4,0,0,0,370,368a3,3,0,0,1,2.29-1.21,4.64,4.64,0,0,1,2.57.69,8.62,8.62,0,0,1,2,1.62A8.42,8.42,0,0,1,378.28,371.23Z" style="fill:#049DD9"></path><path d="M378.28,375.77a11.21,11.21,0,0,1-2.92.64,12.68,12.68,0,0,1-3-.09,6.48,6.48,0,0,1-2.87-1.17,3.33,3.33,0,0,1-1.4-2.67,4.13,4.13,0,0,0,1.83,2,7.9,7.9,0,0,0,2.61.83A50.58,50.58,0,0,0,378.28,375.77Z" style="fill:#049DD9"></path></g></svg>