<svg xmlns="http://www.w3.org/2000/svg" xmlns:xlink="http://www.w3.org/1999/xlink" width="500" zoomAndPan="magnify" viewBox="0 0 375 374.999991" height="500" preserveAspectRatio="xMidYMid meet" version="1.0"><defs><g/><clipPath id="382f463fbc"><path d="M 147.582031 109.085938 L 205 109.085938 L 205 168 L 147.582031 168 Z M 147.582031 109.085938 " clip-rule="nonzero"/></clipPath><clipPath id="a3f6005691"><path d="M 203 132 L 215.832031 132 L 215.832031 152 L 203 152 Z M 203 132 " clip-rule="nonzero"/></clipPath></defs><g clip-path="url(#382f463fbc)"><path fill="#049dd9" d="M 190.648438 109.085938 C 183.679688 109.085938 177.902344 114.15625 176.792969 120.808594 L 175.070312 121.136719 C 173.042969 117.714844 169.316406 115.417969 165.046875 115.417969 C 158.621094 115.417969 153.410156 120.628906 153.410156 127.054688 C 153.410156 132.523438 157.175781 137.105469 162.257812 138.355469 L 162.257812 139.65625 L 159.902344 139.65625 L 159.890625 139.550781 L 157.097656 138.515625 L 155.144531 138.515625 L 158.230469 144.941406 L 159.371094 144.632812 L 160.007812 143.597656 L 162.257812 143.597656 L 162.257812 158.132812 L 165.988281 158.132812 L 165.554688 161.367188 L 156.675781 163.058594 L 154.761719 162.0625 L 147.617188 163.429688 L 148.113281 167.433594 L 155.292969 166.070312 L 156.953125 164.402344 L 166.601562 162.316406 L 167.289062 158.132812 L 202.710938 158.132812 L 202.710938 133.96875 L 199.601562 133.96875 C 202.71875 131.390625 204.707031 127.496094 204.707031 123.136719 C 204.707031 115.375 198.410156 109.085938 190.648438 109.085938 Z M 178.441406 130.089844 C 179.285156 131.570312 180.390625 132.890625 181.695312 133.96875 L 174.414062 133.96875 C 175.175781 132.9375 175.765625 131.777344 176.15625 130.523438 Z M 198.652344 153.25 C 199.351562 153.25 199.917969 153.816406 199.917969 154.519531 C 199.917969 155.21875 199.351562 155.785156 198.652344 155.785156 C 197.949219 155.785156 197.382812 155.21875 197.382812 154.519531 C 197.382812 153.816406 197.949219 153.25 198.652344 153.25 Z M 198.652344 153.25 " fill-opacity="1" fill-rule="nonzero"/></g><path fill="#049dd9" d="M 172.957031 159 L 195.871094 159 L 195.871094 163.832031 L 172.957031 163.832031 Z M 172.957031 159 " fill-opacity="1" fill-rule="nonzero"/><path fill="#343a40" d="M 190.445312 115.707031 C 186.523438 115.707031 183.34375 118.886719 183.34375 122.808594 C 183.34375 126.734375 186.523438 129.914062 190.445312 129.914062 C 194.367188 129.914062 197.550781 126.734375 197.550781 122.808594 C 197.550781 118.886719 194.367188 115.707031 190.445312 115.707031 Z M 189.769531 117.804688 C 190.402344 117.804688 190.921875 118.3125 190.921875 118.949219 C 190.921875 119.585938 190.402344 120.101562 189.769531 120.101562 C 189.132812 120.101562 188.613281 119.585938 188.613281 118.949219 C 188.613281 118.3125 189.132812 117.804688 189.769531 117.804688 Z M 193.324219 119.960938 C 193.960938 119.960938 194.476562 120.480469 194.476562 121.113281 C 194.476562 121.75 193.960938 122.265625 193.324219 122.265625 C 192.691406 122.265625 192.171875 121.75 192.171875 121.113281 C 192.171875 120.480469 192.691406 119.960938 193.324219 119.960938 Z M 187.046875 120.867188 C 187.683594 120.867188 188.195312 121.386719 188.195312 122.019531 C 188.195312 122.65625 187.683594 123.171875 187.046875 123.171875 C 186.414062 123.171875 185.894531 122.65625 185.894531 122.019531 C 185.894531 121.386719 186.414062 120.867188 187.046875 120.867188 Z M 192.90625 124.011719 C 193.542969 124.011719 194.058594 124.523438 194.058594 125.160156 C 194.058594 125.792969 193.542969 126.3125 192.90625 126.3125 C 192.269531 126.3125 191.753906 125.792969 191.753906 125.160156 C 191.753906 124.523438 192.269531 124.011719 192.90625 124.011719 Z M 188.652344 124.710938 C 189.289062 124.710938 189.804688 125.21875 189.804688 125.855469 C 189.804688 126.492188 189.289062 127.007812 188.652344 127.007812 C 188.015625 127.007812 187.5 126.492188 187.5 125.855469 C 187.5 125.21875 188.015625 124.710938 188.652344 124.710938 Z M 188.652344 124.710938 " fill-opacity="1" fill-rule="nonzero"/><path fill="#343a40" d="M 165.078125 120.78125 C 161.902344 120.78125 159.328125 123.355469 159.328125 126.53125 C 159.328125 129.707031 161.902344 132.28125 165.078125 132.28125 C 168.253906 132.28125 170.828125 129.707031 170.828125 126.53125 C 170.828125 123.355469 168.253906 120.78125 165.078125 120.78125 Z M 164.527344 122.476562 C 165.042969 122.476562 165.460938 122.890625 165.460938 123.40625 C 165.460938 123.921875 165.042969 124.339844 164.527344 124.339844 C 164.015625 124.339844 163.59375 123.921875 163.59375 123.40625 C 163.59375 122.890625 164.015625 122.476562 164.527344 122.476562 Z M 167.410156 124.222656 C 167.921875 124.222656 168.34375 124.644531 168.34375 125.15625 C 168.34375 125.671875 167.921875 126.089844 167.410156 126.089844 C 166.894531 126.089844 166.476562 125.671875 166.476562 125.15625 C 166.476562 124.644531 166.894531 124.222656 167.410156 124.222656 Z M 162.328125 124.957031 C 162.84375 124.957031 163.257812 125.378906 163.257812 125.890625 C 163.257812 126.40625 162.84375 126.824219 162.328125 126.824219 C 161.8125 126.824219 161.394531 126.40625 161.394531 125.890625 C 161.394531 125.378906 161.8125 124.957031 162.328125 124.957031 Z M 167.070312 127.503906 C 167.582031 127.503906 168.003906 127.917969 168.003906 128.433594 C 168.003906 128.945312 167.582031 129.367188 167.070312 129.367188 C 166.554688 129.367188 166.136719 128.945312 166.136719 128.433594 C 166.136719 127.917969 166.554688 127.503906 167.070312 127.503906 Z M 163.625 128.066406 C 164.140625 128.066406 164.558594 128.480469 164.558594 128.996094 C 164.558594 129.511719 164.140625 129.929688 163.625 129.929688 C 163.109375 129.929688 162.691406 129.511719 162.691406 128.996094 C 162.691406 128.480469 163.109375 128.066406 163.625 128.066406 Z M 163.625 128.066406 " fill-opacity="1" fill-rule="nonzero"/><path fill="#049dd9" d="M 178.578125 163.832031 L 183.367188 240.910156 L 185.511719 240.898438 L 189.496094 163.835938 L 187.328125 163.835938 L 184.335938 221.882812 L 180.742188 163.835938 L 178.578125 163.835938 Z M 178.578125 163.832031 " fill-opacity="1" fill-rule="nonzero"/><path fill="#049dd9" d="M 187.816406 163.832031 L 207.695312 237.039062 L 207.707031 237.09375 L 207.726562 237.15625 L 209.484375 236.734375 L 209.472656 236.679688 L 194.78125 163.832031 L 192.941406 163.832031 L 202.296875 210.273438 L 189.683594 163.832031 L 187.8125 163.832031 Z M 187.816406 163.832031 " fill-opacity="1" fill-rule="nonzero"/><path fill="#049dd9" d="M 174.199219 163.832031 L 159.699219 235.773438 L 159.6875 235.824219 L 161.441406 236.246094 L 161.464844 236.183594 L 161.472656 236.132812 L 181.125 163.832031 L 179.242188 163.832031 L 166.875 209.367188 L 176.050781 163.832031 Z M 174.199219 163.832031 " fill-opacity="1" fill-rule="nonzero"/><path fill="#049dd9" d="M 181.382812 192.019531 L 187.972656 192.019531 L 187.972656 195.0625 L 181.382812 195.0625 Z M 181.382812 192.019531 " fill-opacity="1" fill-rule="nonzero"/><path fill="#049dd9" d="M 167.4375 191.765625 L 174.03125 191.765625 L 174.03125 194.808594 L 167.4375 194.808594 Z M 167.4375 191.765625 " fill-opacity="1" fill-rule="nonzero"/><path fill="#049dd9" d="M 195.40625 191.765625 L 201.996094 191.765625 L 201.996094 194.808594 L 195.40625 194.808594 Z M 195.40625 191.765625 " fill-opacity="1" fill-rule="nonzero"/><g clip-path="url(#a3f6005691)"><path fill="#049dd9" d="M 215.84375 132.480469 L 208.710938 136.804688 L 203.128906 136.804688 L 203.128906 147.574219 L 208.710938 147.574219 L 215.84375 151.898438 Z M 215.84375 132.480469 " fill-opacity="1" fill-rule="nonzero"/></g><g fill="#049dd9" fill-opacity="1"><g transform="translate(74.176965, 209.820558)"><g><path d="M 14.734375 -10.71875 L 14.734375 -6.890625 C 14.734375 -4.566406 14.164062 -2.78125 13.03125 -1.53125 C 11.894531 -0.289062 10.21875 0.328125 8 0.328125 C 5.78125 0.328125 4.101562 -0.289062 2.96875 -1.53125 C 1.832031 -2.78125 1.265625 -4.566406 1.265625 -6.890625 L 1.265625 -21.84375 C 1.265625 -24.164062 1.832031 -25.945312 2.96875 -27.1875 C 4.101562 -28.4375 5.78125 -29.0625 8 -29.0625 C 10.21875 -29.0625 11.894531 -28.4375 13.03125 -27.1875 C 14.164062 -25.945312 14.734375 -24.164062 14.734375 -21.84375 L 14.734375 -19.046875 L 10.46875 -19.046875 L 10.46875 -22.125 C 10.46875 -23.164062 10.253906 -23.894531 9.828125 -24.3125 C 9.398438 -24.738281 8.832031 -24.953125 8.125 -24.953125 C 7.414062 -24.953125 6.847656 -24.738281 6.421875 -24.3125 C 5.992188 -23.894531 5.78125 -23.164062 5.78125 -22.125 L 5.78125 -6.609375 C 5.78125 -5.566406 5.992188 -4.835938 6.421875 -4.421875 C 6.847656 -4.015625 7.414062 -3.8125 8.125 -3.8125 C 8.832031 -3.8125 9.398438 -4.015625 9.828125 -4.421875 C 10.253906 -4.835938 10.46875 -5.566406 10.46875 -6.609375 L 10.46875 -10.71875 Z M 14.734375 -10.71875 "/></g></g></g><g fill="#049dd9" fill-opacity="1"><g transform="translate(94.125017, 209.820558)"><g><path d="M 1.640625 -28.734375 L 6.15625 -28.734375 L 6.15625 0 L 1.640625 0 Z M 1.640625 -28.734375 "/></g></g></g><g fill="#049dd9" fill-opacity="1"><g transform="translate(106.028662, 209.820558)"><g><path d="M 5.671875 -20.8125 L 5.671875 0 L 1.59375 0 L 1.59375 -28.734375 L 7.265625 -28.734375 L 11.90625 -11.53125 L 11.90625 -28.734375 L 15.921875 -28.734375 L 15.921875 0 L 11.28125 0 Z M 5.671875 -20.8125 "/></g></g></g><g fill="#049dd9" fill-opacity="1"><g transform="translate(127.659467, 209.820558)"><g><path d="M 6.15625 -16.625 L 12.359375 -16.625 L 12.359375 -12.515625 L 6.15625 -12.515625 L 6.15625 -4.109375 L 13.953125 -4.109375 L 13.953125 0 L 1.640625 0 L 1.640625 -28.734375 L 13.953125 -28.734375 L 13.953125 -24.625 L 6.15625 -24.625 Z M 6.15625 -16.625 "/></g></g></g><g fill="#049dd9" fill-opacity="1"><g transform="translate(220.256431, 209.820558)"><g><path d="M 8.453125 -5.296875 L 11.90625 -28.734375 L 16.046875 -28.734375 L 11.609375 0 L 4.890625 0 L 0.453125 -28.734375 L 5 -28.734375 Z M 8.453125 -5.296875 "/></g></g></g><g fill="#049dd9" fill-opacity="1"><g transform="translate(240.861173, 209.820558)"><g><path d="M 6.15625 -16.625 L 12.359375 -16.625 L 12.359375 -12.515625 L 6.15625 -12.515625 L 6.15625 -4.109375 L 13.953125 -4.109375 L 13.953125 0 L 1.640625 0 L 1.640625 -28.734375 L 13.953125 -28.734375 L 13.953125 -24.625 L 6.15625 -24.625 Z M 6.15625 -16.625 "/></g></g></g><g fill="#049dd9" fill-opacity="1"><g transform="translate(260.070449, 209.820558)"><g><path d="M 11.078125 0 C 11.023438 -0.1875 10.972656 -0.363281 10.921875 -0.53125 C 10.867188 -0.695312 10.820312 -0.898438 10.78125 -1.140625 C 10.738281 -1.390625 10.707031 -1.707031 10.6875 -2.09375 C 10.675781 -2.476562 10.671875 -2.957031 10.671875 -3.53125 L 10.671875 -8.046875 C 10.671875 -9.390625 10.4375 -10.332031 9.96875 -10.875 C 9.507812 -11.425781 8.757812 -11.703125 7.71875 -11.703125 L 6.15625 -11.703125 L 6.15625 0 L 1.640625 0 L 1.640625 -28.734375 L 8.453125 -28.734375 C 10.804688 -28.734375 12.507812 -28.1875 13.5625 -27.09375 C 14.613281 -26 15.140625 -24.34375 15.140625 -22.125 L 15.140625 -19.859375 C 15.140625 -16.910156 14.15625 -14.96875 12.1875 -14.03125 C 13.34375 -13.570312 14.128906 -12.8125 14.546875 -11.75 C 14.972656 -10.695312 15.1875 -9.421875 15.1875 -7.921875 L 15.1875 -3.484375 C 15.1875 -2.773438 15.210938 -2.15625 15.265625 -1.625 C 15.316406 -1.09375 15.457031 -0.550781 15.6875 0 Z M 6.15625 -24.625 L 6.15625 -15.796875 L 7.921875 -15.796875 C 8.765625 -15.796875 9.425781 -16.015625 9.90625 -16.453125 C 10.382812 -16.890625 10.625 -17.6875 10.625 -18.84375 L 10.625 -21.671875 C 10.625 -22.710938 10.4375 -23.460938 10.0625 -23.921875 C 9.695312 -24.390625 9.117188 -24.625 8.328125 -24.625 Z M 6.15625 -24.625 "/></g></g></g><g fill="#049dd9" fill-opacity="1"><g transform="translate(280.675191, 209.820558)"><g><path d="M 1.0625 -21.84375 C 1.0625 -24.164062 1.613281 -25.945312 2.71875 -27.1875 C 3.832031 -28.4375 5.5 -29.0625 7.71875 -29.0625 C 9.9375 -29.0625 11.597656 -28.4375 12.703125 -27.1875 C 13.804688 -25.945312 14.359375 -24.164062 14.359375 -21.84375 L 14.359375 -20.734375 L 10.09375 -20.734375 L 10.09375 -22.125 C 10.09375 -23.164062 9.894531 -23.894531 9.5 -24.3125 C 9.101562 -24.738281 8.550781 -24.953125 7.84375 -24.953125 C 7.125 -24.953125 6.566406 -24.738281 6.171875 -24.3125 C 5.773438 -23.894531 5.578125 -23.164062 5.578125 -22.125 C 5.578125 -21.132812 5.796875 -20.265625 6.234375 -19.515625 C 6.671875 -18.765625 7.21875 -18.050781 7.875 -17.375 C 8.53125 -16.707031 9.234375 -16.035156 9.984375 -15.359375 C 10.742188 -14.691406 11.453125 -13.960938 12.109375 -13.171875 C 12.765625 -12.378906 13.3125 -11.476562 13.75 -10.46875 C 14.1875 -9.457031 14.40625 -8.265625 14.40625 -6.890625 C 14.40625 -4.566406 13.835938 -2.78125 12.703125 -1.53125 C 11.566406 -0.289062 9.890625 0.328125 7.671875 0.328125 C 5.453125 0.328125 3.773438 -0.289062 2.640625 -1.53125 C 1.503906 -2.78125 0.9375 -4.566406 0.9375 -6.890625 L 0.9375 -8.859375 L 5.21875 -8.859375 L 5.21875 -6.609375 C 5.21875 -5.566406 5.425781 -4.835938 5.84375 -4.421875 C 6.269531 -4.015625 6.835938 -3.8125 7.546875 -3.8125 C 8.265625 -3.8125 8.832031 -4.015625 9.25 -4.421875 C 9.675781 -4.835938 9.890625 -5.566406 9.890625 -6.609375 C 9.890625 -7.597656 9.671875 -8.46875 9.234375 -9.21875 C 8.796875 -9.96875 8.25 -10.675781 7.59375 -11.34375 C 6.9375 -12.019531 6.226562 -12.691406 5.46875 -13.359375 C 4.71875 -14.023438 4.015625 -14.753906 3.359375 -15.546875 C 2.703125 -16.347656 2.15625 -17.253906 1.71875 -18.265625 C 1.28125 -19.273438 1.0625 -20.46875 1.0625 -21.84375 Z M 1.0625 -21.84375 "/></g></g></g><g fill="#049dd9" fill-opacity="1"><g transform="translate(300.130726, 209.820558)"><g><path d="M 6.15625 -16.625 L 12.359375 -16.625 L 12.359375 -12.515625 L 6.15625 -12.515625 L 6.15625 -4.109375 L 13.953125 -4.109375 L 13.953125 0 L 1.640625 0 L 1.640625 -28.734375 L 13.953125 -28.734375 L 13.953125 -24.625 L 6.15625 -24.625 Z M 6.15625 -16.625 "/></g></g></g><g fill="#049dd9" fill-opacity="1"><g transform="translate(121.441101, 244.47986)"><g><path d="M 9.296875 5.203125 L 8.078125 4.53125 L 11.34375 -1.328125 L 6.0625 2.328125 L 5.203125 1.84375 L 5.53125 -4.578125 L 2.265625 1.265625 L 1.015625 0.578125 L 5.390625 -7.25 L 6.96875 -6.375 L 6.65625 0.28125 L 12.125 -3.5 L 13.671875 -2.625 Z M 9.296875 5.203125 "/></g></g></g><g fill="#049dd9" fill-opacity="1"><g transform="translate(133.997079, 251.300047)"><g><path d="M 4.640625 -6.390625 C 5.816406 -6.835938 7.023438 -6.800781 8.265625 -6.28125 C 9.503906 -5.769531 10.375 -4.9375 10.875 -3.78125 C 11.382812 -2.632812 11.390625 -1.46875 10.890625 -0.28125 C 10.390625 0.894531 9.550781 1.707031 8.375 2.15625 C 7.195312 2.613281 5.988281 2.582031 4.75 2.0625 C 3.507812 1.550781 2.640625 0.71875 2.140625 -0.4375 C 1.640625 -1.601562 1.640625 -2.773438 2.140625 -3.953125 C 2.640625 -5.140625 3.472656 -5.953125 4.640625 -6.390625 Z M 7.765625 -5.046875 C 6.953125 -5.390625 6.128906 -5.398438 5.296875 -5.078125 C 4.472656 -4.753906 3.890625 -4.179688 3.546875 -3.359375 C 3.203125 -2.546875 3.203125 -1.734375 3.546875 -0.921875 C 3.898438 -0.109375 4.484375 0.460938 5.296875 0.796875 C 6.109375 1.140625 6.921875 1.148438 7.734375 0.828125 C 8.546875 0.503906 9.125 -0.0625 9.46875 -0.875 C 9.8125 -1.695312 9.816406 -2.515625 9.484375 -3.328125 C 9.148438 -4.140625 8.578125 -4.710938 7.765625 -5.046875 Z M 7.765625 -5.046875 "/></g></g></g><g fill="#049dd9" fill-opacity="1"><g transform="translate(145.817384, 256.091591)"><g><path d="M 4.9375 1.515625 L 3.453125 1.0625 L 2.65625 -8.5625 L 4.21875 -8.09375 L 4.734375 -0.296875 L 9.53125 -6.46875 L 11.03125 -6 Z M 4.9375 1.515625 "/></g></g></g><g fill="#049dd9" fill-opacity="1"><g transform="translate(156.463881, 259.177164)"><g><path d="M 2.625 0.609375 L 1.140625 0.265625 L 3.15625 -8.46875 L 4.640625 -8.125 Z M 2.625 0.609375 "/></g></g></g><g fill="#049dd9" fill-opacity="1"><g transform="translate(162.419469, 260.547597)"><g><path d="M 8.671875 -6.34375 L 3.84375 -7.09375 L 3.46875 -4.703125 L 7.796875 -4.03125 L 7.578125 -2.6875 L 3.25 -3.359375 L 2.875 -0.921875 L 7.859375 -0.140625 L 7.640625 1.203125 L 1.15625 0.1875 L 2.546875 -8.671875 L 8.875 -7.6875 Z M 8.671875 -6.34375 "/></g></g></g><g fill="#049dd9" fill-opacity="1"><g transform="translate(172.943613, 262.042085)"><g/></g></g><g fill="#049dd9" fill-opacity="1"><g transform="translate(178.473876, 262.560765)"><g><path d="M 6.875 0.125 L 5.28125 -2.625 C 5.1875 -2.613281 5.046875 -2.613281 4.859375 -2.625 L 2.734375 -2.65625 L 2.6875 0.046875 L 1.171875 0.015625 L 1.328125 -8.953125 L 4.96875 -8.890625 C 6.113281 -8.867188 7 -8.582031 7.625 -8.03125 C 8.25 -7.488281 8.554688 -6.726562 8.546875 -5.75 C 8.523438 -5.03125 8.347656 -4.425781 8.015625 -3.9375 C 7.691406 -3.445312 7.226562 -3.097656 6.625 -2.890625 L 8.578125 0.15625 Z M 2.765625 -4.015625 L 4.890625 -3.984375 C 6.347656 -3.953125 7.085938 -4.539062 7.109375 -5.75 C 7.128906 -6.90625 6.410156 -7.5 4.953125 -7.53125 L 2.828125 -7.5625 Z M 2.765625 -4.015625 "/></g></g></g><g fill="#049dd9" fill-opacity="1"><g transform="translate(190.08274, 262.638426)"><g><path d="M 6.984375 -8.15625 L 2.109375 -7.796875 L 2.296875 -5.375 L 6.671875 -5.703125 L 6.78125 -4.34375 L 2.40625 -4.015625 L 2.578125 -1.5625 L 7.609375 -1.9375 L 7.71875 -0.578125 L 1.171875 -0.09375 L 0.5 -9.03125 L 6.890625 -9.5 Z M 6.984375 -8.15625 "/></g></g></g><g fill="#049dd9" fill-opacity="1"><g transform="translate(200.788019, 261.733261)"><g><path d="M 5.09375 -0.859375 L 3.5625 -0.59375 L -1.453125 -8.84375 L 0.171875 -9.125 L 4.09375 -2.390625 L 5.640625 -10.046875 L 7.1875 -10.296875 Z M 5.09375 -0.859375 "/></g></g></g><g fill="#049dd9" fill-opacity="1"><g transform="translate(211.690323, 259.730112)"><g><path d="M 2.609375 -0.640625 L 1.140625 -0.28125 L -0.96875 -9 L 0.5 -9.359375 Z M 2.609375 -0.640625 "/></g></g></g><g fill="#049dd9" fill-opacity="1"><g transform="translate(217.629127, 258.288686)"><g><path d="M 4.90625 -9.546875 L 0.25 -8.0625 L 0.984375 -5.75 L 5.171875 -7.078125 L 5.59375 -5.78125 L 1.40625 -4.453125 L 2.15625 -2.109375 L 6.96875 -3.640625 L 7.375 -2.34375 L 1.109375 -0.359375 L -1.609375 -8.90625 L 4.5 -10.84375 Z M 4.90625 -9.546875 "/></g></g></g><g fill="#049dd9" fill-opacity="1"><g transform="translate(227.959891, 255.00312)"><g><path d="M 9.515625 -4.234375 L 8.09375 -3.59375 L 3.3125 -9.125 L 4.1875 -1.859375 L 2.75 -1.21875 L -3.609375 -8.203125 L -2.109375 -8.859375 L 2.84375 -3.09375 L 1.859375 -10.625 L 3.21875 -11.234375 L 8.171875 -5.453125 L 7.1875 -13 L 8.609375 -13.640625 Z M 9.515625 -4.234375 "/></g></g></g><g fill="#049dd9" fill-opacity="1"><g transform="translate(242.178663, 248.378363)"><g><path d="M -0.984375 -9.890625 C 0.0234375 -10.472656 1.085938 -10.734375 2.203125 -10.671875 L 2.328125 -9.203125 C 1.253906 -9.210938 0.359375 -9.007812 -0.359375 -8.59375 C -0.753906 -8.363281 -1.019531 -8.113281 -1.15625 -7.84375 C -1.300781 -7.570312 -1.300781 -7.304688 -1.15625 -7.046875 C -1.007812 -6.796875 -0.773438 -6.632812 -0.453125 -6.5625 C -0.140625 -6.5 0.191406 -6.515625 0.546875 -6.609375 C 0.910156 -6.710938 1.304688 -6.804688 1.734375 -6.890625 C 2.171875 -6.972656 2.585938 -7.03125 2.984375 -7.0625 C 3.378906 -7.101562 3.765625 -7.023438 4.140625 -6.828125 C 4.523438 -6.640625 4.847656 -6.328125 5.109375 -5.890625 C 5.492188 -5.210938 5.535156 -4.515625 5.234375 -3.796875 C 4.929688 -3.078125 4.347656 -2.46875 3.484375 -1.96875 C 2.890625 -1.625 2.25 -1.398438 1.5625 -1.296875 C 0.882812 -1.203125 0.226562 -1.222656 -0.40625 -1.359375 L -0.5 -2.8125 C 0.101562 -2.675781 0.695312 -2.644531 1.28125 -2.71875 C 1.863281 -2.800781 2.363281 -2.960938 2.78125 -3.203125 C 3.238281 -3.472656 3.546875 -3.765625 3.703125 -4.078125 C 3.859375 -4.398438 3.851562 -4.707031 3.6875 -5 C 3.53125 -5.269531 3.296875 -5.429688 2.984375 -5.484375 C 2.679688 -5.535156 2.347656 -5.515625 1.984375 -5.421875 C 1.617188 -5.335938 1.222656 -5.25 0.796875 -5.15625 C 0.367188 -5.0625 -0.0351562 -4.992188 -0.421875 -4.953125 C -0.816406 -4.910156 -1.207031 -4.984375 -1.59375 -5.171875 C -1.976562 -5.359375 -2.289062 -5.660156 -2.53125 -6.078125 C -2.914062 -6.734375 -2.960938 -7.40625 -2.671875 -8.09375 C -2.390625 -8.789062 -1.828125 -9.390625 -0.984375 -9.890625 Z M -0.984375 -9.890625 "/></g></g></g></svg>